<svg width="31" height="18" viewBox="0 0 31 18" fill="none" xmlns="http://www.w3.org/2000/svg">
<path d="M13.7904 17.2467L0.68606 4.00304C0.468671 3.78552 0.296125 3.52672 0.178375 3.24159C0.0606242 2.95645 -1.15862e-07 2.65062 -1.0236e-07 2.34173C-8.88581e-08 2.03284 0.0606243 1.727 0.178375 1.44187C0.296125 1.15673 0.468671 0.897939 0.686061 0.680417C1.12062 0.244614 1.70846 7.46793e-08 2.3212 1.01463e-07C2.93394 1.28247e-07 3.52179 0.244614 3.95635 0.680418L15.5531 12.2628L27.0339 0.680419C27.4685 0.244615 28.0563 1.22638e-06 28.6691 1.25316e-06C29.2818 1.27995e-06 29.8696 0.244615 30.3042 0.680419C30.5233 0.897125 30.6977 1.15555 30.8171 1.44073C30.9366 1.7259 30.9987 2.03215 31 2.34173C30.9987 2.65131 30.9366 2.95756 30.8171 3.24273C30.6977 3.5279 30.5233 3.78633 30.3042 4.00304L17.1999 17.2467C16.9827 17.4842 16.7191 17.6738 16.4257 17.8034C16.1323 17.9331 15.8154 18 15.4951 18C15.1748 18 14.858 17.9331 14.5646 17.8034C14.2712 17.6738 14.0076 17.4842 13.7904 17.2467Z" fill="#D0D0D0"/>
</svg>
