<svg width="31" height="18" viewBox="0 0 31 18" fill="none" xmlns="http://www.w3.org/2000/svg">
<path d="M17.2096 0.75328L30.3139 13.997C30.5313 14.2145 30.7039 14.4733 30.8216 14.7584C30.9394 15.0435 31 15.3494 31 15.6583C31 15.9672 30.9394 16.273 30.8216 16.5581C30.7039 16.8433 30.5313 17.1021 30.3139 17.3196C29.8794 17.7554 29.2915 18 28.6788 18C28.0661 18 27.4782 17.7554 27.0437 17.3196L15.4469 5.73721L3.96609 17.3196C3.53153 17.7554 2.94369 18 2.33095 18C1.71821 18 1.13036 17.7554 0.695805 17.3196C0.476652 17.1029 0.302307 16.8444 0.182867 16.5593C0.0634289 16.2741 0.00127413 15.9679 2.79248e-08 15.6583C0.00127414 15.3487 0.0634289 15.0424 0.182867 14.7573C0.302307 14.4721 0.476652 14.2137 0.695805 13.997L13.8001 0.75328C14.0173 0.515774 14.2809 0.326223 14.5743 0.196577C14.8677 0.0669306 15.1846 -1.88597e-07 15.5049 -1.84778e-07C15.8252 -1.80958e-07 16.142 0.0669306 16.4354 0.196577C16.7288 0.326223 16.9924 0.515774 17.2096 0.75328Z" fill="#D0D0D0"/>
</svg>
