<svg width="16" height="9" viewBox="0 0 16 9" fill="none" xmlns="http://www.w3.org/2000/svg">
<path d="M7.11763 8.62336L0.354096 2.00152C0.241895 1.89276 0.152839 1.76336 0.0920644 1.62079C0.0312899 1.47823 -5.79311e-08 1.32531 -5.11801e-08 1.17086C-4.4429e-08 1.01642 0.03129 0.863501 0.0920644 0.720933C0.152839 0.578366 0.241895 0.448969 0.354096 0.340209C0.578385 0.122307 0.881788 3.85442e-08 1.19804 5.2368e-08C1.51429 6.61919e-08 1.8177 0.122307 2.04199 0.340209L8.02741 6.13139L13.953 0.340209C14.1773 0.122308 14.4807 6.32971e-07 14.7969 6.46794e-07C15.1132 6.60618e-07 15.4166 0.122308 15.6409 0.340209C15.754 0.448563 15.844 0.577776 15.9056 0.720363C15.9673 0.862949 15.9993 1.01607 16 1.17086C15.9993 1.32566 15.9673 1.47878 15.9056 1.62137C15.844 1.76395 15.754 1.89317 15.6409 2.00152L8.87734 8.62336C8.76525 8.74211 8.62919 8.83689 8.47776 8.90171C8.32633 8.96653 8.16281 9 7.99749 9C7.83217 9 7.66864 8.96653 7.51721 8.90171C7.36578 8.83689 7.22973 8.74211 7.11763 8.62336Z" fill="#D0D0D0"/>
</svg>
