<svg width="24" height="15" viewBox="0 0 24 15" fill="none" xmlns="http://www.w3.org/2000/svg">
<path d="M22.5 0H1.5C1.10218 0 0.720645 0.158036 0.43934 0.43934C0.158036 0.720645 0 1.10218 0 1.5C0 1.89782 0.158036 2.27936 0.43934 2.56066C0.720645 2.84196 1.10218 3 1.5 3H22.5C22.8978 3 23.2794 2.84196 23.5607 2.56066C23.842 2.27936 24 1.89782 24 1.5C24 1.10218 23.842 0.720645 23.5607 0.43934C23.2794 0.158036 22.8978 0 22.5 0Z" fill="#02657C"/>
<path d="M22.5 6H1.5C1.10218 6 0.720645 6.15804 0.43934 6.43934C0.158036 6.72064 0 7.10218 0 7.5C0 7.89782 0.158036 8.27936 0.43934 8.56066C0.720645 8.84196 1.10218 9 1.5 9H22.5C22.8978 9 23.2794 8.84196 23.5607 8.56066C23.842 8.27936 24 7.89782 24 7.5C24 7.10218 23.842 6.72064 23.5607 6.43934C23.2794 6.15804 22.8978 6 22.5 6Z" fill="#02657C"/>
<path d="M22.5 12H1.5C1.10218 12 0.720645 12.158 0.43934 12.4393C0.158036 12.7206 0 13.1022 0 13.5C0 13.8978 0.158036 14.2794 0.43934 14.5607C0.720645 14.842 1.10218 15 1.5 15H22.5C22.8978 15 23.2794 14.842 23.5607 14.5607C23.842 14.2794 24 13.8978 24 13.5C24 13.1022 23.842 12.7206 23.5607 12.4393C23.2794 12.158 22.8978 12 22.5 12Z" fill="#02657C"/>
</svg>
