<svg width="34" height="27" viewBox="0 0 34 27" fill="none" xmlns="http://www.w3.org/2000/svg">
<path d="M0 14.0488V20.2927C0 20.7067 0.162824 21.1037 0.452653 21.3965C0.742482 21.6892 1.13557 21.8537 1.54545 21.8537H3.09091C3.09091 23.0956 3.57938 24.2868 4.44887 25.165C5.31836 26.0432 6.49763 26.5366 7.72727 26.5366C8.95691 26.5366 10.1362 26.0432 11.0057 25.165C11.8752 24.2868 12.3636 23.0956 12.3636 21.8537H21.6364C21.6364 23.0956 22.1248 24.2868 22.9943 25.165C23.8638 26.0432 25.0431 26.5366 26.2727 26.5366C27.5024 26.5366 28.6816 26.0432 29.5511 25.165C30.4206 24.2868 30.9091 23.0956 30.9091 21.8537H32.4545C32.8644 21.8537 33.2575 21.6892 33.5473 21.3965C33.8372 21.1037 34 20.7067 34 20.2927V4.68293C34 3.44094 33.5115 2.24982 32.642 1.3716C31.7726 0.493378 30.5933 0 29.3636 0H11.4982C10.5269 0.00183526 9.58079 0.311701 8.79327 0.885862C8.00576 1.46002 7.41665 2.26949 7.10909 3.2L4.88364 9.9278L0.695455 12.7532C0.482861 12.8946 0.308139 13.0868 0.186814 13.3129C0.0654887 13.5389 0.00131691 13.7917 0 14.0488ZM30.9091 9.36585H27.8182V3.12195H29.3636C29.7735 3.12195 30.1666 3.28641 30.4564 3.57915C30.7463 3.87189 30.9091 4.26893 30.9091 4.68293V9.36585ZM24.7273 21.8537C24.7273 21.5449 24.8179 21.2431 24.9877 20.9864C25.1575 20.7297 25.3989 20.5297 25.6813 20.4115C25.9637 20.2934 26.2744 20.2624 26.5742 20.3227C26.874 20.3829 27.1494 20.5316 27.3655 20.7499C27.5817 20.9682 27.7289 21.2463 27.7885 21.5491C27.8481 21.8519 27.8175 22.1658 27.7005 22.451C27.5836 22.7362 27.3855 22.98 27.1313 23.1516C26.8772 23.3231 26.5784 23.4146 26.2727 23.4146C25.8628 23.4146 25.4698 23.2502 25.1799 22.9574C24.8901 22.6647 24.7273 22.2677 24.7273 21.8537ZM21.6364 12.4878H30.9091V18.7317H29.7036C29.2691 18.2488 28.7394 17.863 28.1486 17.599C27.5577 17.3349 26.9188 17.1985 26.2727 17.1985C25.6267 17.1985 24.9877 17.3349 24.3969 17.599C23.806 17.863 23.2764 18.2488 22.8418 18.7317H21.6364V12.4878ZM21.6364 3.12195H24.7273V9.36585H21.6364V3.12195ZM15.4545 12.4878H18.5455V18.7317H15.4545V12.4878ZM15.4545 3.12195H18.5455V9.36585H15.4545V3.12195ZM12.3636 9.36585H8.33L10.03 4.18341C10.1337 3.87337 10.3312 3.60408 10.5947 3.41361C10.8581 3.22313 11.1742 3.12111 11.4982 3.12195H12.3636V9.36585ZM6.18182 21.8537C6.18182 21.5449 6.27246 21.2431 6.44227 20.9864C6.61209 20.7297 6.85346 20.5297 7.13585 20.4115C7.41825 20.2934 7.72899 20.2624 8.02878 20.3227C8.32856 20.3829 8.60394 20.5316 8.82007 20.7499C9.03621 20.9682 9.1834 21.2463 9.24303 21.5491C9.30266 21.8519 9.27206 22.1658 9.15509 22.451C9.03811 22.7362 8.84003 22.98 8.58588 23.1516C8.33173 23.3231 8.03293 23.4146 7.72727 23.4146C7.31739 23.4146 6.9243 23.2502 6.63447 22.9574C6.34464 22.6647 6.18182 22.2677 6.18182 21.8537ZM3.09091 14.8293L6.64545 12.4878H12.3636V18.7317H11.1582C10.7236 18.2488 10.1939 17.863 9.60312 17.599C9.01229 17.3349 8.37335 17.1985 7.72727 17.1985C7.0812 17.1985 6.44226 17.3349 5.85143 17.599C5.26059 17.863 4.73092 18.2488 4.29636 18.7317H3.09091V14.8293Z" fill="#02657C"/>
</svg>
