<svg width="73" height="100" viewBox="0 0 73 100" fill="none" xmlns="http://www.w3.org/2000/svg">
<path d="M28.8287 79.7131C26.4913 78.657 24.625 80.8974 24.3273 84.133L23.5809 86.0219C23.3095 86.7087 26.2669 88.3407 26.3948 88.5236C26.5226 88.7064 28.2278 90.6376 28.471 90.8661C28.7143 91.0946 30.0007 92.3971 30.3142 92.7857C30.5649 93.0965 33.4763 93.5058 34.9006 93.6716C36.3177 93.3492 50.7234 90.2496 50.7278 89.5631C50.7334 88.705 41.1176 88.0222 38.3498 87.8644C36.0012 87.7304 31.6608 86.6871 31.3109 86.0219C29.8546 83.2527 31.1529 80.7632 28.8287 79.7131Z" fill="#02657C"/>
<path d="M19.4179 65.2912C18.9323 75.3143 29.8542 78.8835 42.1523 75.3143H50.1619C53.0745 75.3143 54.7735 62.2075 55.2589 61.4793C55.7444 60.7512 60.356 51.7706 60.8415 50.557C61.3269 49.3434 64.2395 42.79 65.2104 41.091C65.9871 39.7318 63.2686 28.5505 61.8123 23.1298C58.5761 18.4373 51.4725 9.29488 48.9483 10.2658C45.7929 11.4793 44.6258 19.7994 48.0583 30.0971C50.971 38.8349 47.0548 45.4207 44.1748 46.1165C32.1199 49.0291 19.9008 55.3249 19.4179 65.2912Z" fill="#0E4855"/>
<path d="M23.4886 79.2274C21.1512 78.1713 19.2849 80.4117 18.9873 83.6473L18.2408 85.5362C17.9694 86.2231 20.9268 87.855 21.0547 88.0379C21.1826 88.2208 22.8877 90.152 23.1309 90.3805C23.3742 90.6089 24.6607 91.9114 24.9741 92.3C25.2248 92.6109 28.1362 93.0201 29.5605 93.1859C30.9776 92.8635 46.84 91.9486 46.8444 91.2621C46.85 90.404 32.2815 89.4644 29.186 89.2878C27.6699 89.2014 27.0815 87.3951 27.1844 86.6505C27.6155 83.534 25.8129 80.2775 23.4886 79.2274Z" fill="#0E4855"/>
<path d="M41.747 58.4951C33.2165 61.7757 24.4333 74.6764 25.2424 75.2427H53.398C56.3106 75.2427 58.0096 62.1359 58.4951 61.4077C58.9805 60.6796 63.5922 51.699 64.0776 50.4854C64.563 49.2718 67.4757 42.7184 68.4465 41.0194C69.2232 39.6602 66.5048 28.4789 65.0485 23.0582C61.8122 18.3657 54.7087 9.22329 52.1844 10.1942C49.029 11.4078 53.1208 21.013 56.5533 31.3106C59.4659 40.0485 55.097 45.1456 53.398 47.5728C49.7444 52.7922 48.0583 56.0679 41.747 58.4951Z" fill="#02657C"/>
<path d="M59.5774 8.2781C55.3914 4.84005 50.4897 2.37858 45.2298 1.07327C39.97 -0.232041 34.4847 -0.348261 29.1741 0.733089C22.103 2.15947 15.6155 5.65132 10.5347 10.7656C5.45401 15.8799 2.00904 22.3861 0.636928 29.4587C-0.365074 34.7617 -0.182994 40.2201 1.17018 45.4447C2.52335 50.6693 5.01428 55.5314 8.46531 59.6842C11.6681 63.2934 13.5038 67.9088 13.6539 72.7289V86.3644C13.6539 89.9808 15.0924 93.4491 17.6531 96.0062C20.2137 98.5634 23.6867 100 27.308 100H45.5136C49.1349 100 52.6079 98.5634 55.1685 96.0062C57.7292 93.4491 59.1677 89.9808 59.1677 86.3644V73.5925C59.3205 68.2708 61.2783 63.1587 64.7204 59.0933C70.7515 51.6427 73.5945 42.1162 72.6315 32.5841C71.6685 23.0519 66.9772 14.2845 59.5774 8.1872V8.2781ZM50.065 86.3644C50.065 87.5699 49.5854 88.726 48.7319 89.5784C47.8783 90.4308 46.7207 90.9096 45.5136 90.9096H27.308C26.1009 90.9096 24.9433 90.4308 24.0897 89.5784C23.2362 88.726 22.7567 87.5699 22.7567 86.3644V81.8193H50.065V86.3644ZM57.6658 53.4573C53.0894 58.8779 50.4193 65.6476 50.065 72.7289H40.9622V59.0933C40.9622 57.8878 40.4827 56.7318 39.6291 55.8794C38.7756 55.027 37.6179 54.5481 36.4108 54.5481C35.2037 54.5481 34.046 55.027 33.1925 55.8794C32.3389 56.7318 31.8594 57.8878 31.8594 59.0933V72.7289H22.7567C22.6366 65.7661 20.0574 59.0695 15.4744 53.8209C12.4507 50.2029 10.4174 45.8642 9.57271 41.2278C8.72806 36.5913 9.10091 31.8154 10.6549 27.3658C12.2089 22.9161 14.8911 18.9445 18.4398 15.8382C21.9885 12.732 26.2827 10.5971 30.9036 9.64166C34.875 8.82509 38.9785 8.90189 42.9164 9.86651C46.8543 10.8311 50.5277 12.6593 53.6699 15.2184C56.812 17.7775 59.3442 21.0032 61.0824 24.6613C62.8206 28.3195 63.7213 32.3183 63.7191 36.3674C63.7528 42.5936 61.6122 48.637 57.6658 53.4573Z" fill="#121212"/>
</svg>
