<svg width="130" height="100" viewBox="0 0 130 100" fill="none" xmlns="http://www.w3.org/2000/svg">
<path d="M67.23 45.6627C56.9943 59.8447 35.8122 66.9392 29.5331 67.0986L47.6678 77.2215L51.5538 74.8706H61.6575L84.4554 60.8808L98.9632 45.6627L100.518 18.4067L94.3 7.77203C80.1076 7.37356 75.9062 13.8067 75.9062 25.4077C75.9062 31.3662 75.7183 33.9017 67.23 45.6627Z" fill="#0E4855"/>
<path d="M91.065 46.6795C76.2182 60.4356 64.8285 72.1204 58.5494 72.2798L68.099 79.4344L79.711 81.3471L98.4458 74.0933H117.876L121.514 48.114L124.353 19.4235L106.289 0.535565C92.0971 0.137086 64.8477 6.65628 75.5823 11.0555C89.0006 16.5545 120.482 19.4235 91.065 46.6795Z" fill="#02657C"/>
<path fill-rule="evenodd" clip-rule="evenodd" d="M0 76.4706V52.9412C0.00499711 51.9723 0.248502 51.0197 0.708879 50.1679C1.16926 49.3162 1.83225 48.5917 2.63895 48.0588L18.5313 37.4118L26.976 12.0588C28.143 8.55229 30.3785 5.50193 33.3667 3.33827C36.355 1.17461 39.9452 0.00691595 43.6307 0H111.423C116.088 0 120.563 1.85924 123.863 5.1687C127.162 8.47817 129.016 12.9668 129.016 17.6471V76.4706C129.016 78.0307 128.398 79.5269 127.298 80.6301C126.198 81.7332 124.707 82.3529 123.151 82.3529H117.287C117.287 87.0332 115.433 91.5218 112.134 94.8313C108.835 98.1408 104.36 100 99.6938 100C95.0279 100 90.553 98.1408 87.2537 94.8313C83.9543 91.5218 82.1008 87.0332 82.1008 82.3529H46.9147C46.9147 87.0332 45.0612 91.5218 41.7619 94.8313C38.4625 98.1408 33.9877 100 29.3217 100C24.6558 100 20.1809 98.1408 16.8816 94.8313C13.5822 91.5218 11.7287 87.0332 11.7287 82.3529H5.86434C4.30902 82.3529 2.8174 81.7332 1.71763 80.6301C0.617848 79.5269 0 78.0307 0 76.4706ZM105.558 35.2941H117.287V17.6471C117.287 16.087 116.669 14.5908 115.569 13.4876C114.469 12.3845 112.978 11.7647 111.423 11.7647H105.558V35.2941ZM94.8178 79.0849C94.1734 80.0522 93.8295 81.1895 93.8295 82.3529C93.8295 83.913 94.4473 85.4092 95.5471 86.5124C96.6469 87.6156 98.1385 88.2353 99.6938 88.2353C100.854 88.2353 101.987 87.8903 102.952 87.2439C103.916 86.5976 104.668 85.6789 105.112 84.604C105.556 83.5292 105.672 82.3464 105.445 81.2053C105.219 80.0643 104.661 79.0162 103.841 78.1935C103.02 77.3708 101.975 76.8106 100.838 76.5836C99.7003 76.3566 98.5212 76.4731 97.4496 76.9184C96.3781 77.3636 95.4622 78.1175 94.8178 79.0849ZM93.8295 11.7647H82.1008V35.2941H93.8295V11.7647ZM70.3721 11.7647H58.6434V35.2941H70.3721V11.7647ZM31.6088 35.2941H46.9147V11.7647H43.6307C42.4013 11.7615 41.202 12.146 40.2022 12.8638C39.2025 13.5816 38.453 14.5963 38.0596 15.7647L31.6088 35.2941ZM24.4457 79.0849C23.8013 80.0522 23.4574 81.1895 23.4574 82.3529C23.4574 83.913 24.0752 85.4092 25.175 86.5124C26.2748 87.6156 27.7664 88.2353 29.3217 88.2353C30.4816 88.2353 31.6154 87.8903 32.5798 87.2439C33.5442 86.5976 34.2958 85.6789 34.7397 84.604C35.1835 83.5292 35.2997 82.3464 35.0734 81.2053C34.8471 80.0643 34.2886 79.0162 33.4684 78.1935C32.6483 77.3708 31.6034 76.8106 30.4658 76.5836C29.3282 76.3566 28.1491 76.4731 27.0775 76.9184C26.006 77.3636 25.0901 78.1175 24.4457 79.0849ZM117.287 47.0588H82.1008H70.3721H58.6434H46.9147H25.2167L11.7287 55.8824V70.5882H16.3029C17.9518 68.7685 19.9617 67.3145 22.2037 66.3196C24.4456 65.3247 26.8701 64.8107 29.3217 64.8107C31.7733 64.8107 34.1978 65.3247 36.4398 66.3196C38.6817 67.3145 40.6916 68.7685 42.3406 70.5882H46.9147H58.6434H70.3721H82.1008H86.675C88.3239 68.7685 90.3338 67.3145 92.5758 66.3196C94.8177 65.3247 97.2422 64.8107 99.6938 64.8107C102.145 64.8107 104.57 65.3247 106.812 66.3196C109.054 67.3145 111.064 68.7685 112.713 70.5882H117.287V47.0588Z" fill="#121212"/>
</svg>
