<svg width="60" height="100" viewBox="0 0 60 100" fill="none" xmlns="http://www.w3.org/2000/svg">
<path d="M46.7642 75C52.4613 69.7059 35.8818 55.8824 25.8818 52.9412C27.0583 50.5882 40.4897 50.098 44.1171 50L52.0583 60C52.3524 62.7451 52.8818 68.3529 52.6465 68.8235C52.4112 69.2941 51.7642 75.2941 51.4701 78.2353C48.3328 79.7059 41.5022 79.8898 46.7642 75Z" fill="#0E4855"/>
<path d="M48.823 73.8235C52.5877 67.7059 40.8818 54.4118 30.8818 51.4706C32.0583 49.1177 42.5485 48.9216 46.176 48.8235L54.1171 58.8235C54.4112 61.5686 54.9407 67.1765 54.7054 67.6471C54.4701 68.1177 53.823 74.1177 53.5289 77.0588C50.3916 78.5294 45.0583 79.9412 48.823 73.8235Z" fill="#02657C"/>
<path d="M44.5543 30.2941C17.7896 31.1764 16.6131 33.2353 7.78956 44.4118C6.02485 41.7647 7.78956 30.2941 9.55426 30.2941C11.319 30.2941 13.0837 26.1764 15.4366 25C17.7896 23.8235 21.0249 22.3529 24.2601 22.3529H38.966C40.6131 22.3529 50.6327 24.1176 55.4366 25C49.2602 26.7647 53.1246 30.0116 44.5543 30.2941Z" fill="#0E4855"/>
<path d="M42.647 27.0589C15.8824 27.9412 14.7059 30 5.88233 41.1765C4.11763 38.5295 5.88233 27.0589 7.64704 27.0589C9.41174 27.0589 11.1764 22.9412 13.5294 21.7647C15.8823 20.5883 19.1176 19.1177 22.3529 19.1177H37.0588C38.7059 19.1177 48.7255 20.8824 53.5294 21.7647C47.3529 23.5294 51.2173 26.7764 42.647 27.0589Z" fill="#02657C"/>
<path d="M40 45H20C17.3478 45 14.8043 43.9464 12.9289 42.0711C11.0536 40.1957 10 37.6522 10 35C10 32.3478 11.0536 29.8043 12.9289 27.9289C14.8043 26.0536 17.3478 25 20 25H45C46.3261 25 47.5979 25.5268 48.5355 26.4645C49.4732 27.4021 50 28.6739 50 30C50 31.3261 50.5268 32.5979 51.4645 33.5355C52.4021 34.4732 53.6739 35 55 35C56.3261 35 57.5979 34.4732 58.5355 33.5355C59.4732 32.5979 60 31.3261 60 30C60 26.0218 58.4197 22.2064 55.6066 19.3934C52.7936 16.5804 48.9783 15 45 15H35V5C35 3.67392 34.4732 2.40215 33.5355 1.46447C32.5979 0.526784 31.3261 0 30 0C28.6739 0 27.4022 0.526784 26.4645 1.46447C25.5268 2.40215 25 3.67392 25 5V15H20C14.6957 15 9.60859 17.1071 5.85786 20.8579C2.10714 24.6086 0 29.6957 0 35C0 40.3043 2.10714 45.3914 5.85786 49.1421C9.60859 52.8929 14.6957 55 20 55H40C42.6522 55 45.1957 56.0536 47.0711 57.9289C48.9464 59.8043 50 62.3478 50 65C50 67.6522 48.9464 70.1957 47.0711 72.0711C45.1957 73.9464 42.6522 75 40 75H15C13.6739 75 12.4022 74.4732 11.4645 73.5355C10.5268 72.5979 10 71.3261 10 70C10 68.6739 9.47322 67.4021 8.53553 66.4645C7.59785 65.5268 6.32608 65 5 65C3.67392 65 2.40215 65.5268 1.46447 66.4645C0.526785 67.4021 0 68.6739 0 70C0 73.9782 1.58035 77.7936 4.3934 80.6066C7.20645 83.4196 11.0218 85 15 85H25V95C25 96.3261 25.5268 97.5979 26.4645 98.5355C27.4022 99.4732 28.6739 100 30 100C31.3261 100 32.5979 99.4732 33.5355 98.5355C34.4732 97.5979 35 96.3261 35 95V85H40C45.3043 85 50.3914 82.8929 54.1421 79.1421C57.8929 75.3914 60 70.3043 60 65C60 59.6957 57.8929 54.6086 54.1421 50.8579C50.3914 47.1071 45.3043 45 40 45Z" fill="#121212"/>
</svg>
