<svg width="100" height="100" viewBox="0 0 100 100" fill="none" xmlns="http://www.w3.org/2000/svg">
<path d="M28.4971 85.8957C65.6689 103.632 117.386 54.9915 68.9012 9.84454C97.1841 38.0614 76.982 85.8957 28.4971 85.8957Z" fill="#F25A4F"/>
<path d="M34.7148 89.1192C70.4661 106.218 120.207 59.3265 73.5749 15.8031C100.777 43.0052 81.347 89.1192 34.7148 89.1192Z" fill="#F3372A"/>
<path d="M63.5059 11.3791C27.7546 -5.71939 -21.9864 41.1718 24.6458 84.6951C-2.55632 57.493 16.8737 11.3791 63.5059 11.3791Z" fill="#F3372A"/>
<path d="M46.5 47.1063H46.8906V46.7157V26.7157C46.8906 25.4932 47.3763 24.3208 48.2407 23.4564C49.1051 22.592 50.2775 22.1064 51.5 22.1064C52.7225 22.1064 53.8949 22.592 54.7593 23.4564C55.6237 24.3208 56.1094 25.4932 56.1094 26.7157V51.7157C56.1094 52.9382 55.6237 54.1106 54.7593 54.975C53.8949 55.8395 52.7225 56.3251 51.5 56.3251H36.5C35.2775 56.3251 34.1051 55.8395 33.2407 54.975C32.3763 54.1106 31.8906 52.9382 31.8906 51.7157C31.8906 50.4932 32.3763 49.3208 33.2407 48.4564C34.1051 47.592 35.2775 47.1063 36.5 47.1063H46.5ZM22.4385 8.75131C30.5967 3.30016 40.1882 0.390625 50 0.390625C56.5148 0.390625 62.9658 1.67381 68.9847 4.16691C75.0036 6.66002 80.4725 10.3142 85.0791 14.9209C89.6858 19.5275 93.34 24.9964 95.8331 31.0153C98.3262 37.0342 99.6094 43.4852 99.6094 50C99.6094 59.8118 96.6998 69.4033 91.2487 77.5615C85.7975 85.7197 78.0496 92.0783 68.9847 95.8331C59.9198 99.5879 49.945 100.57 40.3217 98.6561C30.6984 96.7419 21.8589 92.0171 14.9209 85.0791C7.9829 78.1411 3.25807 69.3016 1.34388 59.6783C-0.570311 50.055 0.41212 40.0802 4.16694 31.0153C7.92175 21.9504 14.2803 14.2025 22.4385 8.75131ZM27.5602 83.5836C34.2024 88.0217 42.0115 90.3906 50 90.3906C60.7123 90.3906 70.9858 86.1352 78.5605 78.5605C86.1352 70.9858 90.3906 60.7123 90.3906 50C90.3906 42.0115 88.0218 34.2024 83.5836 27.5602C79.1454 20.918 72.8373 15.741 65.4568 12.6839C58.0764 9.62686 49.9552 8.82699 42.1202 10.3855C34.2852 11.944 27.0883 15.7908 21.4395 21.4395C15.7908 27.0882 11.944 34.2852 10.3855 42.1202C8.82701 49.9552 9.62688 58.0764 12.6839 65.4568C15.741 72.8372 20.918 79.1454 27.5602 83.5836Z" fill="#121212" stroke="black" stroke-width="0.78125"/>
</svg>
