<svg width="113" height="100" viewBox="0 0 113 100" fill="none" xmlns="http://www.w3.org/2000/svg">
<path d="M39.9999 57.2499C54.384 71.6339 64.9166 79.5833 70.9999 79.7499L62.25 91.4999L51 93.4999L33.25 75.9999L10.5 58.7499L7.75 28.7499L25.25 8.99992C39 8.58326 65.4 15.4 55 20C42 25.75 11.4999 28.7499 39.9999 57.2499Z" fill="#F25A4F"/>
<path d="M73.7501 57.2499C59.366 71.6339 48.8334 79.5833 42.7501 79.7499L51.5 91.4999L62.75 93.4999L80.5 75.9999L103.25 58.7499L106 28.7499L88.5 8.99992C74.75 8.58326 48.35 15.4 58.75 20C71.75 25.75 102.25 28.7499 73.7501 57.2499Z" fill="#F3372A"/>
<path d="M102.243 10.5937C96.2793 4.60195 88.3732 0.944947 79.9535 0.283248C71.5337 -0.378451 63.1553 1.99878 56.3318 6.98553C49.173 1.65021 40.2627 -0.769081 31.395 0.214848C22.5273 1.19878 14.3611 5.51284 8.54074 12.2883C2.72038 19.0637 -0.321738 27.7973 0.026981 36.7302C0.375701 45.6631 4.08936 54.1319 10.4201 60.4311L45.3603 95.4977C48.2861 98.3829 52.2267 100 56.3318 100C60.4369 100 64.3775 98.3829 67.3033 95.4977L102.243 60.4311C108.813 53.8083 112.5 44.85 112.5 35.5124C112.5 26.1748 108.813 17.2165 102.243 10.5937ZM94.3102 52.651L59.3701 87.6612C58.9725 88.0635 58.4992 88.3828 57.9777 88.6008C57.4563 88.8187 56.8968 88.9309 56.3318 88.9309C55.7668 88.9309 55.2073 88.8187 54.6858 88.6008C54.1643 88.3828 53.6911 88.0635 53.2935 87.6612L18.3534 52.4819C13.9409 47.9624 11.4701 41.8913 11.4701 35.5687C11.4701 29.2462 13.9409 23.1751 18.3534 18.6556C22.8498 14.2074 28.914 11.7131 35.2327 11.7131C41.5513 11.7131 47.6156 14.2074 52.112 18.6556C52.635 19.184 53.2573 19.6034 53.9429 19.8896C54.6286 20.1759 55.364 20.3232 56.1067 20.3232C56.8495 20.3232 57.5849 20.1759 58.2705 19.8896C58.9562 19.6034 59.5784 19.184 60.1015 18.6556C64.5979 14.2074 70.6622 11.7131 76.9808 11.7131C83.2994 11.7131 89.3637 14.2074 93.8601 18.6556C98.3332 23.1159 100.885 29.1541 100.969 35.4768C101.053 41.7994 98.663 47.9037 94.3102 52.4819V52.651Z" fill="#121212"/>
</svg>
