<svg width="86" height="100" viewBox="0 0 86 100" fill="none" xmlns="http://www.w3.org/2000/svg">
<path d="M45.7666 86.1651C65.6372 87.1002 77.5569 48.2594 69.8023 39.8997L68.8249 39.0777C69.1799 39.3044 69.5055 39.5797 69.8023 39.8997L79.5045 48.0583V78.8835L62.7569 92.233H53.5336L45.7666 86.1651Z" fill="#F25A4F" stroke="#F25A4F" stroke-width="0.621359"/>
<path d="M37.5144 72.5727C-5.93084 59.466 59.8454 31.7965 50.3784 19.6601L38.728 6.79598C36.4369 16.2527 35.4585 21.6143 21.7111 28.8437L10.1428 55.0252L18.121 84.8001C24.3496 92.0706 28.7151 88.3226 37.5144 72.5727Z" fill="#F3372A"/>
<path d="M29.3737 33.4295L29.3636 33.4378L29.354 33.4472L29.3737 33.4295ZM74.2047 32.5862C73.8913 32.2831 73.5437 32.0179 73.1688 31.796C72.6382 31.4825 72.0492 31.2816 71.4382 31.2057C70.8271 31.1299 70.2071 31.1806 69.6164 31.3548C69.0257 31.529 68.4768 31.823 68.0038 32.2185C67.5308 32.6141 67.1436 33.1029 66.8662 33.6546C65.3148 36.7228 63.1751 39.4533 60.57 41.6895C60.9683 39.4364 61.1692 37.1525 61.1703 34.8642C61.1787 27.9027 59.3491 21.0634 55.8678 15.0424C52.3866 9.02151 47.378 4.0341 41.352 0.587996C40.6882 0.210276 39.9396 0.00802957 39.1766 0.000234214C38.4136 -0.00756114 37.6611 0.17935 36.9898 0.543429C36.3184 0.907509 35.7502 1.43682 35.3385 2.0817C34.9268 2.72657 34.685 3.46587 34.6359 4.23022C34.3839 8.51666 33.2675 12.7071 31.3544 16.5477C29.4414 20.3883 26.7714 23.7991 23.5064 26.5733L22.4684 27.421C19.0541 29.7269 16.032 32.5696 13.5181 35.8399C9.6102 40.7816 6.90313 46.5692 5.6115 52.7438C4.31987 58.9184 4.47922 65.3101 6.07691 71.4121C7.6746 77.5141 10.6667 83.1586 14.8159 87.8979C18.9651 92.6371 24.1573 96.3408 29.9807 98.7153C30.6645 98.9957 31.4065 99.103 32.1413 99.0275C32.8761 98.9521 33.5811 98.6963 34.1941 98.2828C34.8072 97.8692 35.3094 97.3105 35.6565 96.6561C36.0036 96.0016 36.1849 95.2715 36.1845 94.5301C36.1812 94.0505 36.1056 93.5742 35.9602 93.1174C34.9526 89.3155 34.6624 85.358 35.1047 81.4491C39.3663 89.5173 46.2071 95.9127 54.5272 99.6071C55.5427 100.063 56.6908 100.124 57.7489 99.7792C64.3224 97.6496 70.2442 93.8681 74.9517 88.7941C79.6591 83.7201 82.9959 77.5221 84.6448 70.7891C86.2937 64.0561 86.2001 57.0117 84.3728 50.3253C82.5456 43.6388 79.0453 37.5324 74.2047 32.5862ZM56.6184 90.5921C52.6926 88.5949 49.2294 85.7908 46.4541 82.3619C43.6789 78.9331 41.6536 74.9564 40.51 70.6903C40.1608 69.2538 39.8906 67.7991 39.7007 66.3328C39.5721 65.3991 39.1559 64.529 38.5105 63.8443C37.865 63.1596 37.0226 62.6945 36.1008 62.5141C35.8169 62.4578 35.5281 62.4298 35.2387 62.4302C34.4471 62.4299 33.6694 62.6391 32.9841 63.0368C32.2988 63.4344 31.7301 64.0064 31.3353 64.6951C27.5984 71.1648 25.7191 78.5468 25.9057 86.0229C22.619 83.4578 19.8722 80.2635 17.8244 76.6251C15.7767 72.9867 14.4688 68.9765 13.9764 64.8269C13.484 60.6774 13.8171 56.471 14.9562 52.4516C16.0953 48.4321 18.0179 44.6796 20.6124 41.4115C22.5824 38.843 24.959 36.6163 27.6473 34.8203C27.7637 34.7449 27.8753 34.6623 27.9816 34.573C27.9816 34.573 29.3178 33.4633 29.3635 33.4379C35.78 27.9902 40.3437 20.6691 42.4187 12.4947C47.3259 17.0481 50.598 23.1005 51.7269 29.712C52.8558 36.3235 51.7784 43.1241 48.662 49.0579C48.2502 49.8497 48.0813 50.7462 48.1766 51.6343C48.2718 52.5223 48.6269 53.3622 49.1971 54.0479C49.7673 54.7336 50.5271 55.2344 51.3805 55.4872C52.2339 55.74 53.1428 55.7334 53.9926 55.4683C60.8914 53.2976 66.9621 49.0576 71.3875 43.3189C74.0472 47.2623 75.7861 51.7573 76.4745 56.4691C77.1629 61.1808 76.7832 65.9877 75.3636 70.5317C73.9439 75.0756 71.521 79.2394 68.2754 82.7127C65.0298 86.1861 61.0451 88.8795 56.6183 90.5922L56.6184 90.5921Z" fill="#121212"/>
</svg>
