<svg width="33" height="32" viewBox="0 0 33 32" fill="none" xmlns="http://www.w3.org/2000/svg">
<path d="M18.82 15.9983L31.4122 3.42607C31.7886 3.04969 32 2.53922 32 2.00694C32 1.47467 31.7886 0.964195 31.4122 0.58782C31.0358 0.211445 30.5253 0 29.9931 0C29.4608 0 28.9503 0.211445 28.5739 0.58782L16.0017 13.18L3.42948 0.58782C3.0531 0.211445 2.54263 4.72577e-07 2.01035 4.76543e-07C1.47808 4.80508e-07 0.967606 0.211445 0.591231 0.58782C0.214856 0.964195 0.00341157 1.47467 0.00341157 2.00694C0.00341156 2.53922 0.214856 3.04969 0.591231 3.42607L13.1834 15.9983L0.591231 28.5705C0.40389 28.7563 0.255194 28.9774 0.153719 29.221C0.0522447 29.4645 0 29.7258 0 29.9896C0 30.2535 0.0522447 30.5148 0.153719 30.7583C0.255194 31.0019 0.40389 31.223 0.591231 31.4088C0.777042 31.5961 0.998108 31.7448 1.24168 31.8463C1.48524 31.9478 1.74649 32 2.01035 32C2.27421 32 2.53546 31.9478 2.77903 31.8463C3.0226 31.7448 3.24367 31.5961 3.42948 31.4088L16.0017 18.8166L28.5739 31.4088C28.7597 31.5961 28.9808 31.7448 29.2244 31.8463C29.4679 31.9478 29.7292 32 29.9931 32C30.2569 32 30.5182 31.9478 30.7617 31.8463C31.0053 31.7448 31.2264 31.5961 31.4122 31.4088C31.5995 31.223 31.7482 31.0019 31.8497 30.7583C31.9512 30.5148 32.0034 30.2535 32.0034 29.9896C32.0034 29.7258 31.9512 29.4645 31.8497 29.221C31.7482 28.9774 31.5995 28.7563 31.4122 28.5705L18.82 15.9983Z" fill="black"/>
</svg>
