<svg width="32" height="32" viewBox="0 0 32 32" fill="none" xmlns="http://www.w3.org/2000/svg">
<path d="M16 0C12.8355 0 9.74207 0.938383 7.11088 2.69649C4.4797 4.45459 2.42894 6.95344 1.21793 9.87706C0.00693254 12.8007 -0.309921 16.0177 0.307443 19.1214C0.924806 22.2251 2.44866 25.0761 4.6863 27.3137C6.92394 29.5513 9.77487 31.0752 12.8786 31.6926C15.9823 32.3099 19.1993 31.9931 22.1229 30.7821C25.0466 29.5711 27.5454 27.5203 29.3035 24.8891C31.0616 22.2579 32 19.1645 32 16C32 13.8988 31.5861 11.8183 30.7821 9.87706C29.978 7.93585 28.7994 6.17203 27.3137 4.68629C25.828 3.20055 24.0641 2.022 22.1229 1.21793C20.1817 0.413852 18.1012 0 16 0ZM17.6 28.688V27.2C17.6 26.7756 17.4314 26.3687 17.1314 26.0686C16.8313 25.7686 16.4244 25.6 16 25.6C15.5757 25.6 15.1687 25.7686 14.8686 26.0686C14.5686 26.3687 14.4 26.7756 14.4 27.2V28.688C11.584 28.3309 8.96653 27.0478 6.95934 25.0407C4.95216 23.0335 3.66912 20.416 3.31201 17.6H4.80001C5.22435 17.6 5.63132 17.4314 5.93138 17.1314C6.23143 16.8313 6.40001 16.4243 6.40001 16C6.40001 15.5756 6.23143 15.1687 5.93138 14.8686C5.63132 14.5686 5.22435 14.4 4.80001 14.4H3.31201C3.66912 11.584 4.95216 8.96652 6.95934 6.95933C8.96653 4.95215 11.584 3.66911 14.4 3.312V4.8C14.4 5.22434 14.5686 5.63131 14.8686 5.93137C15.1687 6.23143 15.5757 6.4 16 6.4C16.4244 6.4 16.8313 6.23143 17.1314 5.93137C17.4314 5.63131 17.6 5.22434 17.6 4.8V3.312C20.416 3.66911 23.0335 4.95215 25.0407 6.95933C27.0478 8.96652 28.3309 11.584 28.688 14.4H27.2C26.7757 14.4 26.3687 14.5686 26.0686 14.8686C25.7686 15.1687 25.6 15.5756 25.6 16C25.6 16.4243 25.7686 16.8313 26.0686 17.1314C26.3687 17.4314 26.7757 17.6 27.2 17.6H28.688C28.3309 20.416 27.0478 23.0335 25.0407 25.0407C23.0335 27.0478 20.416 28.3309 17.6 28.688ZM21.024 8.88L13.024 12.272C12.6511 12.4336 12.3536 12.7311 12.192 13.104L8.8 21.104C8.67399 21.3974 8.63865 21.7218 8.69853 22.0354C8.75841 22.3491 8.91077 22.6377 9.13601 22.864C9.43141 23.1655 9.83397 23.338 10.256 23.344C10.4774 23.3442 10.696 23.295 10.896 23.2L18.896 19.808C19.2689 19.6464 19.5664 19.3489 19.728 18.976L23.12 10.976C23.2437 10.6828 23.2771 10.3594 23.216 10.0471C23.1549 9.73486 23.0021 9.44788 22.7771 9.22289C22.5521 8.99789 22.2651 8.84509 21.9529 8.78401C21.6406 8.72293 21.3172 8.75635 21.024 8.88ZM17.04 17.04L13.392 18.64L14.992 14.992L18.64 13.392L17.04 17.04Z" fill="#02657C"/>
</svg>
