<svg width="32" height="32" viewBox="0 0 32 32" fill="none" xmlns="http://www.w3.org/2000/svg">
<path d="M16 19.2C16.3165 19.2 16.6258 19.1062 16.8889 18.9304C17.152 18.7545 17.3571 18.5047 17.4782 18.2123C17.5993 17.9199 17.631 17.5982 17.5693 17.2879C17.5075 16.9775 17.3551 16.6924 17.1314 16.4686C16.9076 16.2449 16.6225 16.0925 16.3121 16.0307C16.0018 15.969 15.6801 16.0007 15.3877 16.1218C15.0953 16.2429 14.8455 16.448 14.6696 16.7111C14.4938 16.9742 14.4 17.2836 14.4 17.6C14.4 18.0243 14.5686 18.4313 14.8686 18.7314C15.1687 19.0314 15.5757 19.2 16 19.2ZM24 19.2C24.3165 19.2 24.6258 19.1062 24.8889 18.9304C25.152 18.7545 25.3571 18.5047 25.4782 18.2123C25.5993 17.9199 25.631 17.5982 25.5693 17.2879C25.5075 16.9775 25.3551 16.6924 25.1314 16.4686C24.9076 16.2449 24.6225 16.0925 24.3121 16.0307C24.0018 15.969 23.6801 16.0007 23.3877 16.1218C23.0953 16.2429 22.8455 16.448 22.6696 16.7111C22.4938 16.9742 22.4 17.2836 22.4 17.6C22.4 18.0243 22.5686 18.4313 22.8686 18.7314C23.1687 19.0314 23.5757 19.2 24 19.2ZM16 25.6C16.3165 25.6 16.6258 25.5062 16.8889 25.3304C17.152 25.1545 17.3571 24.9047 17.4782 24.6123C17.5993 24.3199 17.631 23.9982 17.5693 23.6879C17.5075 23.3775 17.3551 23.0924 17.1314 22.8686C16.9076 22.6449 16.6225 22.4925 16.3121 22.4307C16.0018 22.369 15.6801 22.4007 15.3877 22.5218C15.0953 22.6429 14.8455 22.848 14.6696 23.1111C14.4938 23.3742 14.4 23.6835 14.4 24C14.4 24.4243 14.5686 24.8313 14.8686 25.1314C15.1687 25.4314 15.5757 25.6 16 25.6ZM24 25.6C24.3165 25.6 24.6258 25.5062 24.8889 25.3304C25.152 25.1545 25.3571 24.9047 25.4782 24.6123C25.5993 24.3199 25.631 23.9982 25.5693 23.6879C25.5075 23.3775 25.3551 23.0924 25.1314 22.8686C24.9076 22.6449 24.6225 22.4925 24.3121 22.4307C24.0018 22.369 23.6801 22.4007 23.3877 22.5218C23.0953 22.6429 22.8455 22.848 22.6696 23.1111C22.4938 23.3742 22.4 23.6835 22.4 24C22.4 24.4243 22.5686 24.8313 22.8686 25.1314C23.1687 25.4314 23.5757 25.6 24 25.6ZM8 19.2C8.31645 19.2 8.62579 19.1062 8.88891 18.9304C9.15203 18.7545 9.35711 18.5047 9.47821 18.2123C9.59931 17.9199 9.63099 17.5982 9.56926 17.2879C9.50752 16.9775 9.35513 16.6924 9.13137 16.4686C8.90761 16.2449 8.62251 16.0925 8.31214 16.0307C8.00177 15.969 7.68007 16.0007 7.38771 16.1218C7.09535 16.2429 6.84546 16.448 6.66965 16.7111C6.49384 16.9742 6.4 17.2836 6.4 17.6C6.4 18.0243 6.56857 18.4313 6.86863 18.7314C7.16869 19.0314 7.57565 19.2 8 19.2ZM27.2 3.2H25.6V1.6C25.6 1.17565 25.4314 0.768687 25.1314 0.468629C24.8313 0.168571 24.4243 0 24 0C23.5757 0 23.1687 0.168571 22.8686 0.468629C22.5686 0.768687 22.4 1.17565 22.4 1.6V3.2H9.6V1.6C9.6 1.17565 9.43143 0.768687 9.13137 0.468629C8.83131 0.168571 8.42435 0 8 0C7.57565 0 7.16869 0.168571 6.86863 0.468629C6.56857 0.768687 6.4 1.17565 6.4 1.6V3.2H4.8C3.52696 3.2 2.30606 3.70571 1.40589 4.60589C0.505713 5.50606 0 6.72696 0 8V27.2C0 28.473 0.505713 29.6939 1.40589 30.5941C2.30606 31.4943 3.52696 32 4.8 32H27.2C28.473 32 29.6939 31.4943 30.5941 30.5941C31.4943 29.6939 32 28.473 32 27.2V8C32 6.72696 31.4943 5.50606 30.5941 4.60589C29.6939 3.70571 28.473 3.2 27.2 3.2ZM28.8 27.2C28.8 27.6243 28.6314 28.0313 28.3314 28.3314C28.0313 28.6314 27.6243 28.8 27.2 28.8H4.8C4.37565 28.8 3.96869 28.6314 3.66863 28.3314C3.36857 28.0313 3.2 27.6243 3.2 27.2V12.8H28.8V27.2ZM28.8 9.6H3.2V8C3.2 7.57565 3.36857 7.16869 3.66863 6.86863C3.96869 6.56857 4.37565 6.4 4.8 6.4H27.2C27.6243 6.4 28.0313 6.56857 28.3314 6.86863C28.6314 7.16869 28.8 7.57565 28.8 8V9.6ZM8 25.6C8.31645 25.6 8.62579 25.5062 8.88891 25.3304C9.15203 25.1545 9.35711 24.9047 9.47821 24.6123C9.59931 24.3199 9.63099 23.9982 9.56926 23.6879C9.50752 23.3775 9.35513 23.0924 9.13137 22.8686C8.90761 22.6449 8.62251 22.4925 8.31214 22.4307C8.00177 22.369 7.68007 22.4007 7.38771 22.5218C7.09535 22.6429 6.84546 22.848 6.66965 23.1111C6.49384 23.3742 6.4 23.6835 6.4 24C6.4 24.4243 6.56857 24.8313 6.86863 25.1314C7.16869 25.4314 7.57565 25.6 8 25.6Z" fill="#02657C"/>
</svg>
