<svg width="39" height="48" viewBox="0 0 39 48" fill="none" xmlns="http://www.w3.org/2000/svg">
<path d="M12.1875 24C11.541 24 10.921 24.2529 10.4639 24.7029C10.0068 25.153 9.75 25.7635 9.75 26.4C9.75 27.0365 10.0068 27.647 10.4639 28.0971C10.921 28.5471 11.541 28.8 12.1875 28.8H26.8125C27.459 28.8 28.079 28.5471 28.5361 28.0971C28.9932 27.647 29.25 27.0365 29.25 26.4C29.25 25.7635 28.9932 25.153 28.5361 24.7029C28.079 24.2529 27.459 24 26.8125 24H12.1875Z" fill="#02657C"/>
<path d="M12.1875 19.2H14.625C15.2715 19.2 15.8915 18.9471 16.3486 18.4971C16.8057 18.047 17.0625 17.4365 17.0625 16.8C17.0625 16.1635 16.8057 15.553 16.3486 15.1029C15.8915 14.6529 15.2715 14.4 14.625 14.4H12.1875C11.541 14.4 10.921 14.6529 10.4639 15.1029C10.0068 15.553 9.75 16.1635 9.75 16.8C9.75 17.4365 10.0068 18.047 10.4639 18.4971C10.921 18.9471 11.541 19.2 12.1875 19.2Z" fill="#02657C"/>
<path d="M26.8125 33.6H12.1875C11.541 33.6 10.921 33.8529 10.4639 34.3029C10.0068 34.753 9.75 35.3635 9.75 36C9.75 36.6365 10.0068 37.247 10.4639 37.6971C10.921 38.1471 11.541 38.4 12.1875 38.4H26.8125C27.459 38.4 28.079 38.1471 28.5361 37.6971C28.9932 37.247 29.25 36.6365 29.25 36C29.25 35.3635 28.9932 34.753 28.5361 34.3029C28.079 33.8529 27.459 33.6 26.8125 33.6Z" fill="#02657C"/>
<path fill-rule="evenodd" clip-rule="evenodd" d="M38.8538 15.792C38.7366 15.5452 38.5802 15.3184 38.3906 15.12L23.7656 0.72C23.5641 0.533319 23.3338 0.379394 23.0831 0.264C22.9283 0.176 22.5069 0 22.0594 0H7.3125C5.3731 0 3.51314 0.75857 2.14178 2.10883C0.770422 3.45909 0 5.29044 0 7.2V40.8C0 42.7096 0.770422 44.5409 2.14178 45.8912C3.51314 47.2414 5.3731 48 7.3125 48H31.6875C33.6269 48 35.4869 47.2414 36.8582 45.8912C38.2296 44.5409 39 42.7096 39 40.8V16.8V16.656C39 16.2665 38.9025 15.9177 38.8538 15.792ZM30.6881 14.4L24.375 8.184V12C24.375 12.6365 24.6318 13.247 25.0889 13.6971C25.546 14.1471 26.166 14.4 26.8125 14.4H30.6881ZM33.4111 42.4971C33.8682 42.047 34.125 41.4365 34.125 40.8V19.2H26.8125C24.8731 19.2 23.0131 18.4414 21.6418 17.0912C20.2704 15.7409 19.5 13.9096 19.5 12V4.8H7.3125C6.66603 4.8 6.04605 5.05286 5.58893 5.50294C5.13181 5.95303 4.875 6.56348 4.875 7.2V40.8C4.875 41.4365 5.13181 42.047 5.58893 42.4971C6.04605 42.9471 6.66603 43.2 7.3125 43.2H31.6875C32.334 43.2 32.954 42.9471 33.4111 42.4971Z" fill="#02657C"/>
<path fill-rule="evenodd" clip-rule="evenodd" d="M14.625 19.2H12.1875C11.541 19.2 10.921 18.9471 10.4639 18.4971C10.0068 18.047 9.75 17.4365 9.75 16.8C9.75 16.1635 10.0068 15.553 10.4639 15.1029C10.921 14.6529 11.541 14.4 12.1875 14.4H14.625C15.2715 14.4 15.8915 14.6529 16.3486 15.1029C16.8057 15.553 17.0625 16.1635 17.0625 16.8C17.0625 17.4365 16.8057 18.047 16.3486 18.4971C15.8915 18.9471 15.2715 19.2 14.625 19.2ZM10.4639 24.7029C10.921 24.2529 11.541 24 12.1875 24H26.8125C27.459 24 28.079 24.2529 28.5361 24.7029C28.9932 25.153 29.25 25.7635 29.25 26.4C29.25 27.0365 28.9932 27.647 28.5361 28.0971C28.079 28.5471 27.459 28.8 26.8125 28.8H12.1875C11.541 28.8 10.921 28.5471 10.4639 28.0971C10.0068 27.647 9.75 27.0365 9.75 26.4C9.75 25.7635 10.0068 25.153 10.4639 24.7029ZM26.8125 33.6C27.459 33.6 28.079 33.8529 28.5361 34.3029C28.9932 34.753 29.25 35.3635 29.25 36C29.25 36.6365 28.9932 37.247 28.5361 37.6971C28.079 38.1471 27.459 38.4 26.8125 38.4H12.1875C11.541 38.4 10.921 38.1471 10.4639 37.6971C10.0068 37.247 9.75 36.6365 9.75 36C9.75 35.3635 10.0068 34.753 10.4639 34.3029C10.921 33.8529 11.541 33.6 12.1875 33.6H26.8125Z" fill="#02657C"/>
</svg>
