<svg width="24" height="714" viewBox="0 0 24 714" fill="none" xmlns="http://www.w3.org/2000/svg">
<circle cx="12" cy="372" r="12" fill="#FEFEFE"/>
<circle cx="12" cy="342" r="12" fill="#FEFEFE"/>
<circle cx="12" cy="312" r="12" fill="#FEFEFE"/>
<circle cx="12" cy="702" r="12" fill="#FEFEFE"/>
<circle cx="12" cy="282" r="12" fill="#FEFEFE"/>
<circle cx="12" cy="672" r="12" fill="#FEFEFE"/>
<circle cx="12" cy="252" r="12" fill="#FEFEFE"/>
<circle cx="12" cy="642" r="12" fill="#FEFEFE"/>
<circle cx="12" cy="222" r="12" fill="#FEFEFE"/>
<circle cx="12" cy="612" r="12" fill="#FEFEFE"/>
<circle cx="12" cy="192" r="12" fill="#FEFEFE"/>
<circle cx="12" cy="582" r="12" fill="#FEFEFE"/>
<circle cx="12" cy="162" r="12" fill="#FEFEFE"/>
<circle cx="12" cy="552" r="12" fill="#FEFEFE"/>
<circle cx="12" cy="132" r="12" fill="#FEFEFE"/>
<circle cx="12" cy="522" r="12" fill="#FEFEFE"/>
<circle cx="12" cy="102" r="12" fill="#FEFEFE"/>
<circle cx="12" cy="492" r="12" fill="#FEFEFE"/>
<circle cx="12" cy="72" r="12" fill="#FEFEFE"/>
<circle cx="12" cy="462" r="12" fill="#FEFEFE"/>
<circle cx="12" cy="42" r="12" fill="#FEFEFE"/>
<circle cx="12" cy="432" r="12" fill="#FEFEFE"/>
<circle cx="12" cy="12" r="12" fill="#FEFEFE"/>
<circle cx="12" cy="402" r="12" fill="#FEFEFE"/>
</svg>
