<svg width="24" height="21" viewBox="0 0 24 21" fill="none" xmlns="http://www.w3.org/2000/svg">
<path d="M23.184 2.39054L15.984 0.0586458H15.9C15.8441 0.0531911 15.7879 0.0531911 15.732 0.0586458H15.456H15.3H15.216L8.4 2.33224L1.584 0.0586458C1.40354 0.000828308 1.21153 -0.0145228 1.02377 0.0138557C0.836004 0.0422343 0.657863 0.113531 0.504004 0.221879C0.348914 0.329165 0.222322 0.470765 0.134686 0.634982C0.0470496 0.799198 0.000884344 0.981318 4.00024e-06 1.1663V17.4896C-0.000645394 17.734 0.0777867 17.9724 0.224214 18.1712C0.370642 18.37 0.577659 18.519 0.816004 18.5972L8.016 20.9291C8.25774 21.0057 8.51826 21.0057 8.76 20.9291L15.6 18.7138L22.416 20.9874C22.5434 21.0042 22.6726 21.0042 22.8 20.9874C23.0509 20.9908 23.2958 20.9129 23.496 20.7659C23.6511 20.6586 23.7777 20.517 23.8653 20.3528C23.953 20.1886 23.9991 20.0064 24 19.8215V3.49819C24.0006 3.25376 23.9222 3.01531 23.7758 2.81654C23.6294 2.61778 23.4223 2.46876 23.184 2.39054ZM7.2 18.2008L2.4 16.6501V2.78696L7.2 4.33767V18.2008ZM14.4 16.6501L9.6 18.2008V4.33767L14.4 2.78696V16.6501ZM21.6 18.2008L16.8 16.6501V2.78696L21.6 4.33767V18.2008Z" fill="#02657C"/>
</svg>
