<svg width="24" height="18" viewBox="0 0 24 18" fill="none" xmlns="http://www.w3.org/2000/svg">
<path d="M0 9.52941V13.7647C0 14.0455 0.114935 14.3148 0.31952 14.5134C0.524105 14.712 0.801582 14.8235 1.09091 14.8235H2.18182C2.18182 15.666 2.52662 16.4739 3.14038 17.0696C3.75413 17.6653 4.58656 18 5.45455 18C6.32253 18 7.15496 17.6653 7.76871 17.0696C8.38247 16.4739 8.72727 15.666 8.72727 14.8235H15.2727C15.2727 15.666 15.6175 16.4739 16.2313 17.0696C16.845 17.6653 17.6775 18 18.5455 18C19.4134 18 20.2459 17.6653 20.8596 17.0696C21.4734 16.4739 21.8182 15.666 21.8182 14.8235H22.9091C23.1984 14.8235 23.4759 14.712 23.6805 14.5134C23.8851 14.3148 24 14.0455 24 13.7647V3.17647C24 2.33402 23.6552 1.52607 23.0414 0.930367C22.4277 0.334663 21.5953 0 20.7273 0H8.11636C7.43078 0.00124487 6.76291 0.211429 6.20702 0.600888C5.65113 0.990347 5.23528 1.53941 5.01818 2.17059L3.44727 6.73412L0.490909 8.65059C0.340843 8.74651 0.21751 8.87691 0.131869 9.03023C0.0462273 9.18354 0.000929584 9.35502 0 9.52941ZM21.8182 6.35294H19.6364V2.11765H20.7273C21.0166 2.11765 21.2941 2.2292 21.4987 2.42777C21.7032 2.62634 21.8182 2.89565 21.8182 3.17647V6.35294ZM17.4545 14.8235C17.4545 14.6141 17.5185 14.4094 17.6384 14.2353C17.7583 14.0612 17.9286 13.9254 18.128 13.8453C18.3273 13.7652 18.5467 13.7442 18.7583 13.7851C18.9699 13.8259 19.1643 13.9267 19.3168 14.0748C19.4694 14.2229 19.5733 14.4116 19.6154 14.617C19.6575 14.8224 19.6359 15.0352 19.5533 15.2287C19.4708 15.4222 19.3309 15.5876 19.1515 15.7039C18.9721 15.8203 18.7612 15.8824 18.5455 15.8824C18.2561 15.8824 17.9787 15.7708 17.7741 15.5722C17.5695 15.3737 17.4545 15.1043 17.4545 14.8235ZM15.2727 8.47059H21.8182V12.7059H20.9673C20.6605 12.3783 20.2866 12.1166 19.8696 11.9375C19.4525 11.7584 19.0015 11.6659 18.5455 11.6659C18.0894 11.6659 17.6384 11.7584 17.2213 11.9375C16.8043 12.1166 16.4304 12.3783 16.1236 12.7059H15.2727V8.47059ZM15.2727 2.11765H17.4545V6.35294H15.2727V2.11765ZM10.9091 8.47059H13.0909V12.7059H10.9091V8.47059ZM10.9091 2.11765H13.0909V6.35294H10.9091V2.11765ZM8.72727 6.35294H5.88L7.08 2.83765C7.15318 2.62734 7.29262 2.44468 7.47859 2.31548C7.66456 2.18628 7.88766 2.11707 8.11636 2.11765H8.72727V6.35294ZM4.36364 14.8235C4.36364 14.6141 4.42762 14.4094 4.54749 14.2353C4.66736 14.0612 4.83774 13.9254 5.03707 13.8453C5.23641 13.7652 5.45576 13.7442 5.66737 13.7851C5.87899 13.8259 6.07337 13.9267 6.22593 14.0748C6.3785 14.2229 6.4824 14.4116 6.52449 14.617C6.56659 14.8224 6.54498 15.0352 6.46241 15.2287C6.37985 15.4222 6.24002 15.5876 6.06062 15.7039C5.88122 15.8203 5.67031 15.8824 5.45455 15.8824C5.16522 15.8824 4.88774 15.7708 4.68316 15.5722C4.47857 15.3737 4.36364 15.1043 4.36364 14.8235ZM2.18182 10.0588L4.69091 8.47059H8.72727V12.7059H7.87636C7.56962 12.3783 7.19573 12.1166 6.77867 11.9375C6.36161 11.7584 5.9106 11.6659 5.45455 11.6659C4.99849 11.6659 4.54748 11.7584 4.13042 11.9375C3.71336 12.1166 3.33947 12.3783 3.03273 12.7059H2.18182V10.0588Z" fill="white"/>
</svg>
