<svg width="24" height="24" viewBox="0 0 24 24" fill="none" xmlns="http://www.w3.org/2000/svg">
<path d="M23.7414 11.856L21.3403 8.856C21.2285 8.71458 21.0863 8.60014 20.9241 8.5212C20.762 8.44226 20.5842 8.40083 20.4039 8.4H13.2006V1.2C13.2006 0.88174 13.0741 0.576515 12.8489 0.351472C12.6238 0.126428 12.3184 0 12 0C11.6816 0 11.3762 0.126428 11.1511 0.351472C10.9259 0.576515 10.7994 0.88174 10.7994 1.2V2.4H3.59613C3.4158 2.40083 3.23798 2.44226 3.07586 2.5212C2.91375 2.60014 2.77151 2.71458 2.6597 2.856L0.258597 5.856C0.091109 6.06786 0 6.32998 0 6.6C0 6.87002 0.091109 7.13214 0.258597 7.344L2.6597 10.344C2.77151 10.4854 2.91375 10.5999 3.07586 10.6788C3.23798 10.7577 3.4158 10.7992 3.59613 10.8H10.7994V21.6H8.39834C8.07994 21.6 7.77457 21.7264 7.54943 21.9515C7.32428 22.1765 7.19779 22.4817 7.19779 22.8C7.19779 23.1183 7.32428 23.4235 7.54943 23.6485C7.77457 23.8736 8.07994 24 8.39834 24H15.6017C15.9201 24 16.2254 23.8736 16.4506 23.6485C16.6757 23.4235 16.8022 23.1183 16.8022 22.8C16.8022 22.4817 16.6757 22.1765 16.4506 21.9515C16.2254 21.7264 15.9201 21.6 15.6017 21.6H13.2006V16.8H20.4039C20.5842 16.7992 20.762 16.7577 20.9241 16.6788C21.0863 16.5999 21.2285 16.4854 21.3403 16.344L23.7414 13.344C23.9089 13.1321 24 12.87 24 12.6C24 12.33 23.9089 12.0679 23.7414 11.856ZM10.7994 8.4H4.1724L2.73174 6.6L4.1724 4.8H10.7994V8.4ZM19.8276 14.4H13.2006V10.8H19.8276L21.2683 12.6L19.8276 14.4Z" fill="#02657C"/>
</svg>
