<svg width="22" height="22" viewBox="0 0 22 22" fill="none" xmlns="http://www.w3.org/2000/svg">
<path fill-rule="evenodd" clip-rule="evenodd" d="M11 0C8.0124 0 7.6384 0.0131996 6.46507 0.0659996C5.29174 0.1188 4.49387 0.305067 3.79427 0.577867C3.06379 0.860559 2.40038 1.29267 1.84652 1.84652C1.29267 2.40038 0.860559 3.06379 0.577867 3.79427C0.305067 4.49387 0.120266 5.2932 0.0659996 6.46507C0.0117329 7.63693 0 8.0124 0 11C0 13.9876 0.0131996 14.3616 0.0659996 15.5349C0.1188 16.7083 0.305067 17.5061 0.577867 18.2057C0.860559 18.9362 1.29267 19.5996 1.84652 20.1535C2.40038 20.7073 3.06379 21.1394 3.79427 21.4221C4.49387 21.6949 5.2932 21.8797 6.46507 21.934C7.63694 21.9883 8.0124 22 11 22C13.9876 22 14.3616 21.9868 15.5349 21.934C16.7083 21.8812 17.5061 21.6949 18.2057 21.4221C18.9362 21.1394 19.5996 20.7073 20.1535 20.1535C20.7073 19.5996 21.1394 18.9362 21.4221 18.2057C21.6949 17.5061 21.8797 16.7068 21.934 15.5349C21.9883 14.3631 22 13.9876 22 11C22 8.0124 21.9868 7.6384 21.934 6.46507C21.8812 5.29173 21.6949 4.49387 21.4221 3.79427C21.1394 3.06379 20.7073 2.40038 20.1535 1.84652C19.5996 1.29267 18.9362 0.860559 18.2057 0.577867C17.5061 0.305067 16.7068 0.120266 15.5349 0.0659996C14.3631 0.0117329 13.9876 0 11 0ZM10.9996 5.35168C9.88251 5.35168 8.7905 5.68293 7.86167 6.30356C6.93284 6.92418 6.2089 7.8063 5.78141 8.83836C5.35392 9.87042 5.24206 11.0061 5.46 12.1017C5.67793 13.1973 6.21586 14.2037 7.00577 14.9936C7.79567 15.7835 8.80208 16.3215 9.89771 16.5394C10.9933 16.7573 12.129 16.6455 13.161 16.218C14.1931 15.7905 15.0752 15.0666 15.6958 14.1377C16.3165 13.2089 16.6477 12.1169 16.6477 10.9998C16.6477 9.50183 16.0527 8.0652 14.9934 7.00597C13.9342 5.94674 12.4976 5.35168 10.9996 5.35168ZM10.9996 14.6665C10.2744 14.6665 9.56549 14.4514 8.96251 14.0485C8.35953 13.6456 7.88957 13.073 7.61204 12.403C7.33452 11.733 7.26191 10.9957 7.40339 10.2845C7.54487 9.57321 7.89408 8.91987 8.40688 8.40708C8.91967 7.89429 9.57301 7.54507 10.2843 7.40359C10.9955 7.26211 11.7328 7.33473 12.4028 7.61225C13.0728 7.88977 13.6454 8.35973 14.0483 8.96271C14.4512 9.56569 14.6663 10.2746 14.6663 10.9998C14.6663 11.9723 14.28 12.9049 13.5923 13.5925C12.9047 14.2802 11.9721 14.6665 10.9996 14.6665ZM18.1913 5.12769C18.1913 5.85671 17.6003 6.44769 16.8713 6.44769C16.1423 6.44769 15.5513 5.85671 15.5513 5.12769C15.5513 4.39868 16.1423 3.80769 16.8713 3.80769C17.6003 3.80769 18.1913 4.39868 18.1913 5.12769Z" fill="#121212"/>
</svg>
