<svg width="10" height="12" viewBox="0 0 10 12" fill="none" xmlns="http://www.w3.org/2000/svg">
<path d="M9.97625 4.58404C9.89367 3.71273 9.58994 2.87796 9.09464 2.161C8.59933 1.44404 7.92934 0.869333 7.1499 0.492841C6.37046 0.116349 5.50814 -0.0490967 4.64691 0.0126143C3.78567 0.0743254 2.95487 0.36109 2.23541 0.844984C1.61732 1.264 1.09844 1.8166 0.716035 2.46309C0.333634 3.10958 0.0972099 3.8339 0.0237456 4.58404C-0.0483205 5.32926 0.0441412 6.0814 0.294422 6.78589C0.544703 7.49038 0.946527 8.12955 1.47074 8.65704L4.58825 11.8236C4.64294 11.8795 4.70799 11.9239 4.77967 11.9541C4.85135 11.9844 4.92823 12 5.00588 12C5.08353 12 5.16042 11.9844 5.23209 11.9541C5.30377 11.9239 5.36883 11.8795 5.42351 11.8236L8.52926 8.65704C9.05347 8.12955 9.4553 7.49038 9.70558 6.78589C9.95586 6.0814 10.0483 5.32926 9.97625 4.58404ZM7.70577 7.8162L5 10.5594L2.29424 7.8162C1.89548 7.41191 1.59003 6.92308 1.39984 6.38484C1.20966 5.8466 1.13945 5.27233 1.19428 4.7033C1.24947 4.12551 1.4306 3.56737 1.7246 3.06924C2.01859 2.5711 2.41809 2.14543 2.89421 1.82298C3.51827 1.4027 4.2508 1.17851 5 1.17851C5.7492 1.17851 6.48173 1.4027 7.10579 1.82298C7.58047 2.14418 7.97909 2.56798 8.27301 3.06393C8.56693 3.55988 8.74885 4.11567 8.80572 4.69138C8.86234 5.26233 8.79302 5.8389 8.60278 6.37935C8.41254 6.91979 8.10614 7.41059 7.70577 7.8162ZM5 2.41932C4.47648 2.41932 3.96472 2.57671 3.52944 2.87158C3.09415 3.16645 2.75488 3.58556 2.55454 4.07591C2.3542 4.56626 2.30178 5.10583 2.40392 5.62638C2.50605 6.14694 2.75815 6.6251 3.12833 7.00039C3.49851 7.37569 3.97015 7.63127 4.48361 7.73482C4.99706 7.83836 5.52928 7.78522 6.01294 7.58211C6.49661 7.379 6.91 7.03505 7.20085 6.59374C7.4917 6.15244 7.64694 5.6336 7.64694 5.10285C7.64539 4.39162 7.36602 3.70997 6.86996 3.20705C6.37389 2.70413 5.70154 2.4209 5 2.41932ZM5 6.5937C4.70916 6.5937 4.42485 6.50627 4.18302 6.34245C3.94119 6.17863 3.75271 5.94579 3.64141 5.67338C3.53011 5.40096 3.50099 5.1012 3.55773 4.812C3.61447 4.5228 3.75453 4.25716 3.96018 4.04866C4.16584 3.84016 4.42786 3.69817 4.71311 3.64065C4.99837 3.58312 5.29404 3.61265 5.56275 3.72549C5.83145 3.83832 6.06111 4.02941 6.2227 4.27458C6.38428 4.51975 6.47052 4.80799 6.47052 5.10285C6.47052 5.49825 6.31559 5.87745 6.03982 6.15704C5.76404 6.43663 5.39001 6.5937 5 6.5937Z" fill="#9A9A9A"/>
</svg>
