<svg width="20" height="24" viewBox="0 0 20 24" fill="none" xmlns="http://www.w3.org/2000/svg">
<path d="M9.59997 0C7.0539 0 4.61211 1.01142 2.81177 2.81177C1.01142 4.61211 0 7.0539 0 9.59997C0 16.0799 8.45997 23.3999 8.81997 23.7119C9.03733 23.8978 9.31395 24 9.59997 24C9.88599 24 10.1626 23.8978 10.38 23.7119C10.8 23.3999 19.1999 16.0799 19.1999 9.59997C19.1999 7.0539 18.1885 4.61211 16.3882 2.81177C14.5878 1.01142 12.146 0 9.59997 0ZM9.59997 21.1799C7.04398 18.7799 2.39999 13.608 2.39999 9.59997C2.39999 7.69042 3.15856 5.85907 4.50882 4.50882C5.85907 3.15856 7.69042 2.39999 9.59997 2.39999C11.5095 2.39999 13.3409 3.15856 14.6911 4.50882C16.0414 5.85907 16.7999 7.69042 16.7999 9.59997C16.7999 13.608 12.156 18.7919 9.59997 21.1799ZM9.59997 4.79998C8.65062 4.79998 7.72259 5.0815 6.93324 5.60893C6.14389 6.13636 5.52866 6.88601 5.16536 7.76309C4.80206 8.64018 4.70701 9.60529 4.89221 10.5364C5.07742 11.4675 5.53458 12.3228 6.20587 12.9941C6.87716 13.6654 7.73243 14.1225 8.66354 14.3077C9.59464 14.4929 10.5598 14.3979 11.4368 14.0346C12.3139 13.6713 13.0636 13.0561 13.591 12.2667C14.1184 11.4773 14.4 10.5493 14.4 9.59997C14.4 8.32693 13.8942 7.10604 12.9941 6.20587C12.0939 5.3057 10.873 4.79998 9.59997 4.79998ZM9.59997 12C9.1253 12 8.66128 11.8592 8.26661 11.5955C7.87193 11.3318 7.56431 10.9569 7.38267 10.5184C7.20102 10.0799 7.15349 9.59731 7.24609 9.13175C7.3387 8.6662 7.56727 8.23856 7.90292 7.90292C8.23856 7.56727 8.6662 7.3387 9.13175 7.24609C9.59731 7.15349 10.0799 7.20102 10.5184 7.38267C10.9569 7.56431 11.3318 7.87193 11.5955 8.26661C11.8592 8.66128 12 9.1253 12 9.59997C12 10.2365 11.7471 10.8469 11.297 11.297C10.8469 11.7471 10.2365 12 9.59997 12Z" fill="white"/>
</svg>
