<svg width="8" height="13" viewBox="0 0 8 13" fill="none" xmlns="http://www.w3.org/2000/svg">
<path d="M7.66521 5.78307L1.77913 0.287703C1.68245 0.19654 1.56743 0.124182 1.44071 0.0748024C1.31398 0.0254231 1.17805 0 1.04077 0C0.903483 0 0.767556 0.0254231 0.64083 0.0748024C0.514103 0.124182 0.399084 0.19654 0.302408 0.287703C0.108717 0.469938 0 0.716453 0 0.973408C0 1.23036 0.108717 1.47688 0.302408 1.65911L5.45013 6.52227L0.302408 11.3368C0.108717 11.519 0 11.7656 0 12.0225C0 12.2795 0.108717 12.526 0.302408 12.7082C0.398722 12.8001 0.513578 12.8732 0.640322 12.9233C0.767065 12.9734 0.903176 12.9995 1.04077 13C1.17836 12.9995 1.31447 12.9734 1.44121 12.9233C1.56796 12.8732 1.68281 12.8001 1.77913 12.7082L7.66521 7.21284C7.77077 7.12176 7.85501 7.01122 7.91263 6.88818C7.97025 6.76515 8 6.63228 8 6.49796C8 6.36364 7.97025 6.23077 7.91263 6.10773C7.85501 5.98469 7.77077 5.87415 7.66521 5.78307Z" fill="#02657C"/>
</svg>
