<svg width="8" height="13" viewBox="0 0 8 13" fill="none" xmlns="http://www.w3.org/2000/svg">
<path d="M0.334792 5.78307L6.22087 0.287703C6.31755 0.19654 6.43257 0.124182 6.55929 0.0748024C6.68602 0.0254231 6.82195 0 6.95923 0C7.09652 0 7.23244 0.0254231 7.35917 0.0748024C7.4859 0.124182 7.60092 0.19654 7.69759 0.287703C7.89128 0.469938 8 0.716453 8 0.973408C8 1.23036 7.89128 1.47688 7.69759 1.65911L2.54987 6.52227L7.69759 11.3368C7.89128 11.519 8 11.7656 8 12.0225C8 12.2795 7.89128 12.526 7.69759 12.7082C7.60128 12.8001 7.48642 12.8732 7.35968 12.9233C7.23293 12.9734 7.09682 12.9995 6.95923 13C6.82164 12.9995 6.68553 12.9734 6.55879 12.9233C6.43204 12.8732 6.31719 12.8001 6.22087 12.7082L0.334792 7.21284C0.229232 7.12176 0.144988 7.01122 0.0873675 6.88818C0.029747 6.76515 0 6.63228 0 6.49796C0 6.36364 0.029747 6.23077 0.0873675 6.10773C0.144988 5.98469 0.229232 5.87415 0.334792 5.78307Z" fill="#9A9A9A"/>
</svg>
