<svg width="40" height="41" viewBox="0 0 40 41" fill="none" xmlns="http://www.w3.org/2000/svg">
<path d="M39.4384 37.5435L32.0228 29.9983C34.9013 26.3167 36.2952 21.6438 35.9181 16.9403C35.5409 12.2368 33.4213 7.86035 29.995 4.71074C26.5687 1.56114 22.0963 -0.122179 17.4972 0.00691161C12.8982 0.136002 8.52218 2.06769 5.26895 5.40478C2.01573 8.74187 0.132584 13.2307 0.00673792 17.9483C-0.119108 22.6659 1.52191 27.2537 4.59236 30.7682C7.66281 34.2828 11.9293 36.4571 16.5146 36.844C21.0999 37.2309 25.6554 35.801 29.2444 32.8483L36.6 40.3935C36.7859 40.5857 37.0069 40.7382 37.2505 40.8423C37.4941 40.9464 37.7553 41 38.0192 41C38.2831 41 38.5443 40.9464 38.7879 40.8423C39.0315 40.7382 39.2525 40.5857 39.4384 40.3935C39.7986 40.0112 40 39.5003 40 38.9685C40 38.4368 39.7986 37.9259 39.4384 37.5435ZM18.0311 32.8483C15.2638 32.8483 12.5586 32.0065 10.2577 30.4295C7.9568 28.8524 6.16345 26.6109 5.10445 23.9883C4.04546 21.3658 3.76837 18.48 4.30825 15.6959C4.84812 12.9118 6.1807 10.3545 8.13747 8.34724C10.0942 6.34003 12.5873 4.9731 15.3014 4.41931C18.0156 3.86552 20.8288 4.14974 23.3855 5.23604C25.9421 6.32234 28.1273 8.16192 29.6647 10.5222C31.2022 12.8824 32.0228 15.6573 32.0228 18.4959C32.0228 22.3024 30.5486 25.953 27.9247 28.6446C25.3007 31.3361 21.7419 32.8483 18.0311 32.8483Z" fill="white"/>
</svg>
