<svg width="32" height="25" viewBox="0 0 32 25" fill="none" xmlns="http://www.w3.org/2000/svg">
<path d="M16.4587 12.6262C17.2359 11.9575 17.8592 11.1303 18.2865 10.2009C18.7137 9.27155 18.9348 8.26166 18.9348 7.23982C18.9348 5.3197 18.1675 3.47822 16.8018 2.12049C15.436 0.762765 13.5837 2.59057e-07 11.6522 2.59057e-07C9.72072 2.59057e-07 7.86835 0.762765 6.5026 2.12049C5.13684 3.47822 4.36957 5.3197 4.36957 7.23982C4.36956 8.26166 4.59067 9.27155 5.01791 10.2009C5.44514 11.1303 6.06849 11.9575 6.84566 12.6262C4.80673 13.5441 3.07685 15.0263 1.86286 16.8956C0.648874 18.765 0.00214379 20.9424 0 23.1674C0 23.5514 0.153455 23.9197 0.426606 24.1913C0.699757 24.4628 1.07023 24.6154 1.45652 24.6154C1.84282 24.6154 2.21329 24.4628 2.48644 24.1913C2.75959 23.9197 2.91305 23.5514 2.91305 23.1674C2.91305 20.8633 3.83377 18.6535 5.47268 17.0242C7.11159 15.395 9.33442 14.4796 11.6522 14.4796C13.9699 14.4796 16.1928 15.395 17.8317 17.0242C19.4706 18.6535 20.3913 20.8633 20.3913 23.1674C20.3913 23.5514 20.5448 23.9197 20.8179 24.1913C21.0911 24.4628 21.4616 24.6154 21.8478 24.6154C22.2341 24.6154 22.6046 24.4628 22.8778 24.1913C23.1509 23.9197 23.3044 23.5514 23.3044 23.1674C23.3022 20.9424 22.6555 18.765 21.4415 16.8956C20.2275 15.0263 18.4976 13.5441 16.4587 12.6262ZM11.6522 11.5837C10.788 11.5837 9.94315 11.3289 9.22458 10.8516C8.50601 10.3743 7.94595 9.6959 7.61523 8.90215C7.28451 8.10841 7.19798 7.235 7.36658 6.39237C7.53518 5.54974 7.95134 4.77573 8.56243 4.16822C9.17353 3.56072 9.95211 3.14701 10.7997 2.97939C11.6473 2.81178 12.5259 2.89781 13.3243 3.22659C14.1228 3.55537 14.8052 4.11213 15.2853 4.82648C15.7655 5.54083 16.0218 6.38068 16.0218 7.23982C16.0218 8.39189 15.5614 9.49678 14.7419 10.3114C13.9225 11.1261 12.8111 11.5837 11.6522 11.5837ZM25.8387 12.0471C26.7708 11.0036 27.3797 9.71447 27.5921 8.33497C27.8044 6.95547 27.6112 5.54436 27.0356 4.27149C26.4601 2.99863 25.5267 1.91826 24.3479 1.16043C23.1691 0.402606 21.7951 -0.000372996 20.3913 2.59057e-07C20.005 2.59057e-07 19.6346 0.152553 19.3614 0.424099C19.0883 0.695645 18.9348 1.06394 18.9348 1.44796C18.9348 1.83199 19.0883 2.20028 19.3614 2.47183C19.6346 2.74337 20.005 2.89593 20.3913 2.89593C21.5502 2.89593 22.6616 3.35359 23.4811 4.16822C24.3005 4.98286 24.7609 6.08775 24.7609 7.23982C24.7588 8.00035 24.556 8.74701 24.1725 9.40514C23.7891 10.0633 23.2386 10.6098 22.5761 10.99C22.3602 11.1139 22.1798 11.2907 22.0523 11.5037C21.9248 11.7167 21.8544 11.9586 21.8478 12.2063C21.8418 12.4521 21.8987 12.6955 22.0134 12.9133C22.1281 13.1312 22.2967 13.3164 22.5033 13.4516L23.0713 13.8281L23.2607 13.9294C25.0164 14.7572 26.4975 16.0666 27.5297 17.7033C28.5619 19.3399 29.1021 21.2357 29.0868 23.1674C29.0868 23.5514 29.2402 23.9197 29.5134 24.1913C29.7865 24.4628 30.157 24.6154 30.5433 24.6154C30.9296 24.6154 31.3001 24.4628 31.5732 24.1913C31.8464 23.9197 31.9998 23.5514 31.9998 23.1674C32.0117 20.9454 31.4519 18.7573 30.3736 16.8109C29.2952 14.8646 27.7342 13.2247 25.8387 12.0471Z" fill="#02657C"/>
</svg>
