<svg width="151" height="150" viewBox="0 0 151 150" fill="none" xmlns="http://www.w3.org/2000/svg">
<g clip-path="url(#clip0)">
<path d="M148.429 75C149.297 75 150.002 75.7034 149.984 76.5708C149.653 92.3435 144.356 107.626 134.826 120.231C124.979 133.255 111.152 142.71 95.443 147.16C79.7343 151.61 63.0025 150.813 47.7881 144.889C32.5738 138.965 19.708 128.239 11.1445 114.338C2.5809 100.437 -1.21265 84.1214 0.339829 67.8685C1.89231 51.6155 8.70601 36.3131 19.7463 24.2848C30.7866 12.2565 45.4504 4.1594 61.5111 1.22297C77.0563 -1.6192 93.0881 0.523608 107.324 7.32305C108.107 7.69696 108.418 8.64301 108.028 9.41784V9.41784C107.637 10.1927 106.694 10.5028 105.91 10.1296C92.2858 3.63738 76.9485 1.59424 62.0761 4.3134C46.6882 7.12682 32.6387 14.8848 22.0608 26.4092C11.483 37.9337 4.9547 52.5951 3.46725 68.1672C1.9798 83.7393 5.61445 99.3715 13.8193 112.69C22.0241 126.009 34.3509 136.286 48.928 141.962C63.505 147.637 79.536 148.401 94.5867 144.137C109.637 139.874 122.886 130.815 132.32 118.337C141.438 106.277 146.511 91.6595 146.841 76.5708C146.86 75.7035 147.562 75 148.429 75V75Z" fill="#F15A4F"/>
<path d="M130.739 33.8499C133.279 31.9747 136.879 32.5032 138.555 35.1787C144.341 44.4127 148.058 54.8175 149.418 65.6751C151.016 78.4278 149.31 91.3771 144.464 103.281C139.617 115.184 131.793 125.643 121.742 133.653C111.691 141.663 99.7503 146.956 87.0653 149.023C74.3803 151.091 61.3768 149.864 49.3024 145.46C37.228 141.056 26.4878 133.624 18.1123 123.875C9.73678 114.127 4.00698 102.389 1.47261 89.7893C-0.685152 79.0616 -0.464953 68.0151 2.08903 57.4218C2.82902 54.3525 6.07462 52.7082 9.07867 53.6798V53.6798C12.0827 54.6513 13.7034 57.871 13.0055 60.9501C11.0296 69.6688 10.9103 78.7285 12.6815 87.5347C14.8296 98.2139 19.6859 108.162 26.7846 116.424C33.8833 124.687 42.9862 130.986 53.2199 134.719C63.4536 138.451 74.4748 139.491 85.226 137.739C95.9772 135.986 106.098 131.5 114.617 124.712C123.135 117.923 129.767 109.058 133.874 98.9695C137.982 88.8805 139.428 77.9053 138.073 67.0967C136.957 58.1838 133.966 49.6309 129.324 41.991C127.685 39.2928 128.199 35.7252 130.739 33.8499V33.8499Z" fill="#F15A4F"/>
<path d="M130.617 46.9601C132.97 45.8893 135.761 46.9241 136.669 49.3447C141.548 62.3612 142.354 76.5965 138.917 90.1422C135.096 105.205 126.256 118.515 113.855 127.879C101.453 137.243 86.2315 142.102 70.6985 141.655C55.1654 141.208 40.2484 135.481 28.4068 125.418C16.5652 115.356 8.50596 101.558 5.55768 86.3011C2.6094 71.0439 4.94813 55.2374 12.1883 41.4876C19.4285 27.7378 31.1378 16.8656 45.3859 10.6633C58.1995 5.08557 72.3784 3.58421 86.0116 6.29859C88.5468 6.80335 90.0186 9.39136 89.3416 11.8861V11.8861C88.6646 14.3808 86.0951 15.8348 83.5545 15.3576C71.9821 13.1841 59.9838 14.5183 49.1222 19.2464C36.8254 24.5992 26.7197 33.9824 20.4711 45.8491C14.2225 57.7157 12.2041 71.3574 14.7486 84.5251C17.2931 97.6928 24.2486 109.6 34.4684 118.285C44.6882 126.969 57.5622 131.912 70.968 132.298C84.3737 132.684 97.5108 128.491 108.214 120.409C118.916 112.327 126.546 100.84 129.844 87.8401C132.757 76.3579 132.137 64.3015 128.125 53.2315C127.244 50.8013 128.264 48.0308 130.617 46.9601V46.9601Z" fill="#F15A4F"/>
<path d="M85.6453 125.521C86.0383 126.986 85.1699 128.5 83.6861 128.818C76.2345 130.411 68.5174 130.396 61.0533 128.761C52.6932 126.93 44.8944 123.12 38.3116 117.651C31.7288 112.182 26.5541 105.214 23.2219 97.3307C19.8897 89.4478 18.4972 80.8805 19.1613 72.3481C19.8255 63.8157 22.5269 55.5671 27.0388 48.2948C31.5507 41.0225 37.7414 34.9388 45.0912 30.5543C52.441 26.1698 60.7354 23.6125 69.2781 23.0971C76.9054 22.6369 84.5318 23.8165 91.6471 26.5436C93.0639 27.0867 93.6876 28.7168 93.0725 30.1038V30.1038C92.4575 31.4909 90.8368 32.1088 89.4169 31.5741C83.1078 29.1984 76.3588 28.1745 69.609 28.5818C61.9437 29.0442 54.5012 31.3389 47.9062 35.2731C41.3113 39.2073 35.7564 44.6662 31.7079 51.1916C27.6593 57.717 25.2354 65.1184 24.6394 72.7745C24.0435 80.4306 25.2929 88.118 28.2829 95.1913C31.2729 102.265 35.9162 108.517 41.8229 113.425C47.7296 118.332 54.7274 121.751 62.2289 123.394C68.8343 124.84 75.6605 124.873 82.2612 123.503C83.7468 123.194 85.2523 124.055 85.6453 125.521V125.521Z" fill="#F15A4F"/>
<path d="M122.217 45.0516C124.361 43.8857 127.061 44.6733 128.07 46.8957C133.752 59.4122 135.095 73.5185 131.804 86.9522C128.161 101.821 119.104 114.797 106.402 123.344C93.7009 131.89 78.2688 135.391 63.1228 133.164C47.9768 130.937 34.206 123.141 24.5025 111.3C14.799 99.4594 9.86055 84.4253 10.6525 69.1369C11.4445 53.8485 17.91 39.4052 28.785 28.6304C39.66 17.8557 54.1627 11.5243 69.4577 10.874C83.2762 10.2865 96.8438 14.3743 108 22.4054C109.981 23.8313 110.223 26.6327 108.658 28.506V28.506C107.094 30.3794 104.316 30.6126 102.318 29.2107C92.8652 22.5771 81.4527 19.2105 69.8332 19.7046C56.7363 20.2614 44.3179 25.6829 35.0058 34.9091C25.6937 44.1354 20.1574 56.503 19.4793 69.5941C18.8011 82.6853 23.0299 95.5588 31.3388 105.698C39.6477 115.837 51.4394 122.512 64.4087 124.42C77.3779 126.327 90.5922 123.328 101.468 116.01C112.344 108.692 120.1 97.5813 123.219 84.8491C125.986 73.5531 124.928 61.7016 120.281 51.1294C119.299 48.895 120.073 46.2175 122.217 45.0516V45.0516Z" fill="#F15A4F"/>
</g>
<defs>
<clipPath id="clip0">
<rect width="151" height="150" fill="white"/>
</clipPath>
</defs>
</svg>
