<svg width="162" height="51" viewBox="0 0 162 51" fill="none" xmlns="http://www.w3.org/2000/svg">
<path d="M32.1278 31.493C32.2655 31.493 32.3774 31.6046 32.3745 31.7423C32.3221 34.2456 31.4814 36.6711 29.9688 38.6717C28.406 40.7388 26.2115 42.2393 23.7183 42.9457C21.2251 43.652 18.5696 43.5254 16.1549 42.5852C13.7402 41.6451 11.6982 39.9426 10.3391 37.7364C8.97993 35.5301 8.37785 32.9406 8.62425 30.3611C8.87065 27.7816 9.95206 25.3529 11.7043 23.4438C13.4565 21.5348 15.7839 20.2497 18.3329 19.7836C20.8001 19.3326 23.3445 19.6726 25.6039 20.7518C25.7282 20.8111 25.7776 20.9613 25.7156 21.0843C25.6537 21.2072 25.5039 21.2565 25.3796 21.1972C23.2172 20.1668 20.783 19.8426 18.4226 20.2741C15.9803 20.7207 13.7505 21.9519 12.0716 23.781C10.3928 25.6101 9.35668 27.937 9.12061 30.4085C8.88453 32.88 9.46139 35.361 10.7636 37.4748C12.0658 39.5887 14.0222 41.2198 16.3358 42.1206C18.6493 43.0214 21.1937 43.1426 23.5824 42.4659C25.9711 41.7892 28.0738 40.3515 29.5711 38.371C31.0182 36.457 31.8235 34.137 31.8758 31.7423C31.8788 31.6046 31.9902 31.493 32.1278 31.493Z" fill="#F15A4F"/>
<path d="M29.3202 24.9619C29.7233 24.6643 30.2947 24.7482 30.5607 25.1728C31.479 26.6384 32.0689 28.2898 32.2848 30.013C32.5384 32.037 32.2676 34.0922 31.4985 35.9815C30.7293 37.8707 29.4875 39.5306 27.8923 40.8019C26.2971 42.0732 24.4019 42.9132 22.3886 43.2413C20.3754 43.5695 18.3116 43.3748 16.3952 42.6758C14.4788 41.9769 12.7743 40.7973 11.445 39.2501C10.1157 37.7028 9.20627 35.84 8.80403 33.8402C8.46157 32.1376 8.49652 30.3844 8.90187 28.7031C9.01931 28.2159 9.53443 27.955 10.0112 28.1092C10.488 28.2634 10.7452 28.7744 10.6345 29.2631C10.3208 30.6468 10.3019 32.0847 10.583 33.4824C10.9239 35.1773 11.6947 36.7562 12.8214 38.0675C13.948 39.3789 15.3927 40.3787 17.017 40.9711C18.6412 41.5634 20.3904 41.7285 22.0967 41.4503C23.8031 41.1722 25.4093 40.4603 26.7614 39.3828C28.1134 38.3053 29.1659 36.8985 29.8178 35.2972C30.4697 33.696 30.6992 31.9541 30.4842 30.2386C30.307 28.824 29.8324 27.4666 29.0956 26.254C28.8354 25.8258 28.9171 25.2596 29.3202 24.9619Z" fill="#F15A4F"/>
<path d="M29.243 27.0773C29.6158 26.9077 30.0582 27.0716 30.2019 27.4552C30.975 29.5177 31.1028 31.7733 30.5582 33.9196C29.9527 36.3062 28.552 38.4153 26.587 39.8991C24.622 41.3828 22.2101 42.1527 19.7489 42.0818C17.2876 42.011 14.924 41.1035 13.0477 39.5091C11.1714 37.9147 9.89441 35.7285 9.42725 33.311C8.9601 30.8934 9.33067 28.3889 10.4779 26.2102C11.6251 24.0315 13.4805 22.3088 15.7381 21.3261C17.7684 20.4423 20.0151 20.2044 22.1753 20.6345C22.577 20.7145 22.8102 21.1245 22.7029 21.5198C22.5956 21.9151 22.1885 22.1455 21.7859 22.0699C19.9523 21.7255 18.0511 21.9369 16.3301 22.6861C14.3817 23.5342 12.7804 25.021 11.7903 26.9013C10.8002 28.7816 10.4804 30.9431 10.8836 33.0296C11.2867 35.116 12.3889 37.0028 14.0082 38.3788C15.6275 39.7549 17.6674 40.538 19.7916 40.5992C21.9157 40.6604 23.9973 39.9959 25.6932 38.7154C27.389 37.4348 28.5979 35.6146 29.1205 33.5548C29.5821 31.7354 29.484 29.8251 28.8481 28.071C28.7086 27.686 28.8702 27.247 29.243 27.0773Z" fill="#F15A4F"/>
<path d="M22.2146 39.6228C22.277 39.8555 22.1391 40.0959 21.9035 40.1463C20.7202 40.3993 19.4948 40.397 18.3096 40.1374C16.9821 39.8466 15.7437 39.2416 14.6984 38.3732C13.6531 37.5047 12.8314 36.3982 12.3022 35.1465C11.7731 33.8947 11.552 32.5343 11.6575 31.1794C11.7629 29.8245 12.1919 28.5147 12.9083 27.3599C13.6248 26.2052 14.6078 25.2391 15.7749 24.5429C16.942 23.8467 18.2591 23.4406 19.6156 23.3587C20.8268 23.2857 22.0378 23.473 23.1676 23.906C23.3926 23.9923 23.4916 24.2511 23.394 24.4714C23.2963 24.6916 23.039 24.7897 22.8135 24.7048C21.8117 24.3276 20.74 24.165 19.6682 24.2297C18.451 24.3031 17.2691 24.6675 16.2219 25.2922C15.1747 25.9169 14.2926 26.7837 13.6497 27.8199C13.0069 28.8561 12.622 30.0314 12.5273 31.2471C12.4327 32.4629 12.6311 33.6836 13.1059 34.8067C13.5807 35.9299 14.318 36.9228 15.2559 37.7021C16.1939 38.4813 17.3051 39.0242 18.4962 39.2851C19.5451 39.5148 20.6291 39.52 21.6772 39.3023C21.9131 39.2534 22.1522 39.3901 22.2146 39.6228Z" fill="#F15A4F"/>
<path d="M27.9042 26.8113C28.2452 26.6259 28.6744 26.7511 28.8349 27.1045C29.7385 29.0949 29.952 31.338 29.4287 33.4742C28.8494 35.8387 27.4091 37.9021 25.3894 39.2611C23.3696 40.62 20.9157 41.1769 18.5072 40.8227C16.0987 40.4685 13.9089 39.2288 12.3659 37.346C10.8229 35.4631 10.0376 33.0724 10.1635 30.6413C10.2894 28.2102 11.3176 25.9134 13.0469 24.2C14.7762 22.4867 17.0824 21.4799 19.5145 21.3764C21.7119 21.283 23.8694 21.9331 25.6434 23.2101C25.9584 23.4369 25.9969 23.8824 25.7481 24.1803C25.4993 24.4781 25.0577 24.5152 24.74 24.2923C23.2367 23.2374 21.422 22.7021 19.5742 22.7807C17.4916 22.8692 15.5169 23.7313 14.0361 25.1985C12.5553 26.6656 11.6749 28.6323 11.5671 30.714C11.4593 32.7957 12.1317 34.8428 13.453 36.4551C14.7742 38.0674 16.6493 39.1289 18.7117 39.4322C20.774 39.7354 22.8753 39.2586 24.6048 38.095C26.3342 36.9313 27.5675 35.1644 28.0635 33.1398C28.5036 31.3435 28.3352 29.4589 27.5963 27.7778C27.4401 27.4225 27.5633 26.9967 27.9042 26.8113Z" fill="#F15A4F"/>
<path d="M12.9119 5.0321C13.0555 5.05258 13.0936 5.15405 13.1355 5.23876C13.2386 5.44704 13.3464 5.65509 13.4255 5.87315C13.6163 6.39816 13.7497 6.9355 13.8355 7.49193C13.9583 9.1487 13.5331 10.9995 13.3052 11.7179C13.0441 12.4058 12.7571 13.0848 12.4574 13.7572C12.2556 14.2096 12.0078 14.6415 11.7879 15.086C11.4502 15.7685 11.0094 16.3894 10.6271 17.0452C10.4439 17.3594 10.2314 17.6563 10.0304 17.96C9.67105 18.503 9.31429 19.0475 8.94916 19.5865C8.45836 20.311 7.96267 21.0324 7.46488 21.7524C6.8789 22.5997 6.28082 23.4387 5.70275 24.2914C5.39882 24.74 5.12677 25.2104 4.83983 25.6705C4.62247 26.0188 4.39348 26.3605 4.18892 26.7163C3.94549 27.1391 3.7172 27.5713 3.49216 28.0044C3.28876 28.396 3.09584 28.7935 2.90315 29.1905C2.64902 29.7142 2.43306 30.2529 2.27551 30.8144C2.23176 30.9708 2.17056 31.1223 2.12192 31.2775C2.07095 31.44 2.02208 31.6029 1.9788 31.7674C1.90386 32.0516 1.81357 32.3339 1.76609 32.6229C1.63763 33.402 1.46519 34.1779 1.48962 34.9743C1.50172 35.3685 1.54012 35.7623 1.57317 36.1558C1.59086 36.3641 1.61692 36.5723 1.64927 36.779C1.7626 37.5009 1.94016 38.2058 2.21291 38.8853C2.26975 39.0267 2.31802 39.172 2.36616 39.3169L2.36837 39.3235C2.52266 39.788 2.73652 40.2255 2.959 40.6603C3.34508 41.4152 3.83332 42.1043 4.31528 42.7978C5.02181 43.8143 5.84377 44.7319 6.75277 45.5683C7.20261 45.9823 7.68573 46.3605 8.16257 46.744C8.53678 47.0451 8.91565 47.3421 9.30801 47.6185C10.1246 48.1936 10.9512 48.7544 11.7746 49.3197C12.0362 49.4994 12.3019 49.6732 12.5628 49.8535C12.6217 49.8943 12.6692 49.9513 12.722 50.0006C12.7152 50.0153 12.7085 50.0302 12.7017 50.0448C12.5979 50.0448 12.4921 50.0588 12.3908 50.0425C11.8074 49.949 11.241 49.7947 10.6927 49.571C10.3773 49.4426 10.0434 49.3551 9.73877 49.2064C9.25891 48.972 8.78882 48.7146 8.3292 48.4424C7.95662 48.2217 7.59404 47.9802 7.24799 47.72C6.7032 47.3104 6.16376 46.8924 5.69181 46.3954C5.41441 46.1033 5.11025 45.8357 4.84402 45.5343C3.8417 44.3998 2.90874 43.2139 2.14449 41.9C1.57736 40.9251 1.08097 39.9181 0.717232 38.8511C0.512673 38.2507 0.343254 37.637 0.242953 37.0073C0.21619 36.839 0.17244 36.6736 0.14498 36.5053C-0.0279298 35.4493 -0.059347 34.3888 0.122871 33.3336C0.27181 32.4714 0.405391 31.601 0.687445 30.7702C0.906199 30.1254 1.17476 29.4961 1.44983 28.8724C1.67789 28.3553 1.9397 27.8526 2.20127 27.3511C2.42631 26.9192 2.66764 26.4957 2.9106 26.0735C2.99507 25.9267 3.12051 25.8031 3.20173 25.6549C3.56756 24.9874 4.03602 24.3872 4.44025 23.7447C4.67483 23.3719 4.94734 23.0228 5.20357 22.664C5.93314 21.6419 6.66434 20.6209 7.39297 19.5981C8.07205 18.6452 8.73413 17.6803 9.35991 16.692C9.68711 16.1753 9.96427 15.627 10.2917 15.1104C10.7206 14.4337 11.0646 13.7132 11.4129 12.9962C11.816 12.1661 12.1611 11.3104 12.3971 10.4144C12.5433 9.8596 12.7099 9.31016 12.8425 8.75233C12.9249 8.40675 12.9826 8.05185 13.0133 7.69789C13.0787 6.93946 13.0604 6.1794 12.994 5.42098C12.9875 5.34511 12.9556 5.2718 12.9386 5.19664C12.9275 5.1473 12.9224 5.09727 12.9119 5.0321Z" fill="#02657C"/>
<path d="M16.8175 45.0383C16.4712 44.9606 16.1189 44.9034 15.7803 44.8C15.3211 44.6602 14.8743 44.481 14.4196 44.326C13.6744 44.0719 12.9751 43.7167 12.3165 43.2962C11.4945 42.7714 10.6812 42.2283 9.98186 41.5357C9.49153 41.05 8.97815 40.5844 8.57439 40.0214C8.28558 39.6188 8.02634 39.1948 7.76313 38.7745C7.44966 38.2742 7.18716 37.7464 6.95816 37.2027C6.62956 36.4224 6.37311 35.6182 6.1874 34.7918C6.13643 34.5649 6.07965 34.3389 6.038 34.1104C5.99215 33.859 5.9477 33.6065 5.92536 33.3524C5.85298 32.5239 5.85904 31.6931 5.92303 30.8654C5.95771 30.4185 6.03125 29.972 6.12666 29.5337C6.25489 28.944 6.39056 28.3525 6.58 27.7805C6.76454 27.2233 7.01425 26.6869 7.24883 26.1472C7.39381 25.8138 7.55392 25.4861 7.72427 25.1647C8.00353 24.6378 8.27953 24.1082 8.58765 23.5983C9.01236 22.8952 9.4643 22.2087 9.90739 21.5166C10.4717 20.6351 11.1254 19.8175 11.7384 18.9707C11.9658 18.6568 12.1855 18.3375 12.4152 18.0254C12.8015 17.5011 13.1973 16.9837 13.5813 16.4576C13.8555 16.082 14.1138 15.6947 14.384 15.3163C14.6586 14.9314 14.9495 14.5577 15.215 14.1667C15.6022 13.5965 15.9792 13.0189 16.3495 12.4376C16.6534 11.9605 16.945 11.4753 17.2345 10.9894C17.3693 10.7634 17.4896 10.5286 17.6108 10.295C17.7751 9.97847 17.9378 9.66105 18.0942 9.34059C18.2366 9.0483 18.3774 8.75461 18.5054 8.45557C19.1014 7.06461 19.4984 5.61664 19.6764 4.11515C19.7558 3.44678 19.7544 2.7712 19.7174 2.09446C19.6846 1.49288 19.5266 0.917374 19.4407 0.3279C19.4269 0.233184 19.4276 0.136605 19.419 0C19.5894 0.111937 19.6504 0.249939 19.709 0.373978C19.8984 0.772856 20.083 1.17522 20.244 1.5862C20.5943 2.47937 20.7204 3.41723 20.6976 4.36811C20.6785 5.15889 20.5619 5.94268 20.3376 6.70623C20.3027 6.82515 20.2766 6.94686 20.2533 7.0688C20.1467 7.62849 19.9452 8.15653 19.7253 8.67874C19.5719 9.04318 19.4204 9.40855 19.2629 9.77112C18.9597 10.4697 18.5861 11.1314 18.1949 11.7832C17.9038 12.2684 17.6187 12.7583 17.3039 13.2281C16.7384 14.0715 16.1533 14.9018 15.5748 15.7366C15.3276 16.0934 15.0802 16.4501 14.8259 16.8018C14.3127 17.5115 13.787 18.2123 13.2806 18.9269C12.6309 19.8443 11.9837 20.7635 11.3575 21.697C10.8653 22.4307 10.3877 23.1759 9.93974 23.9371C9.61789 24.4838 9.35073 25.0632 9.06821 25.6325C8.85807 26.0558 8.64211 26.4782 8.46524 26.9157C8.21554 27.5328 7.97514 28.1551 7.8397 28.8121C7.79292 29.039 7.69146 29.2552 7.6491 29.4826C7.47759 30.4036 7.25185 31.3185 7.30235 32.268C7.31306 32.4688 7.30514 32.6715 7.29583 32.8728C7.28094 33.1944 7.34773 33.5041 7.41126 33.8162C7.48085 34.1579 7.51436 34.5083 7.60442 34.8439C7.73893 35.3445 7.90695 35.8362 8.0652 36.3303C8.12175 36.5071 8.17714 36.6866 8.25696 36.8534C8.45058 37.2586 8.65351 37.6591 8.86109 38.0573C9.11266 38.5399 9.46011 38.9607 9.75171 39.4159C10.232 40.165 10.8674 40.7584 11.5041 41.3605C12.1031 41.9269 12.7545 42.4284 13.4172 42.9113C14.0049 43.3395 14.6381 43.7046 15.2536 44.0942C15.4435 44.2145 15.6448 44.3169 15.8338 44.4386C16.1082 44.6153 16.3879 44.78 16.6941 44.8964C16.7479 44.9169 16.7933 44.9592 16.8426 44.9916C16.8347 45.0069 16.8261 45.0227 16.8175 45.0383Z" fill="#02657C"/>
<path d="M16.2456 2.52386C16.2812 2.59484 16.3217 2.66373 16.3519 2.73703C16.6784 3.52897 16.9102 4.34535 17.0277 5.19639C17.0961 5.69092 17.102 6.18521 17.0931 6.6809C17.0836 7.20079 17.044 7.71859 16.9426 8.22987C16.9184 8.35158 16.8986 8.47446 16.8662 8.59384C16.7182 9.14003 16.5793 9.68925 16.4113 10.2294C16.2989 10.5913 16.1616 10.948 16.0031 11.2922C15.7143 11.9187 15.4155 12.5412 15.0943 13.1514C14.8311 13.6513 14.5374 14.136 14.2421 14.6182C13.9147 15.1532 13.5854 15.6882 13.2293 16.2044C12.7145 16.9507 12.1732 17.6784 11.6471 18.4169C11.3999 18.7638 11.1663 19.1208 10.9184 19.4673C10.6026 19.9086 10.2736 20.3405 9.95916 20.7829C9.61776 21.2628 9.28614 21.7498 8.95079 22.2339C8.77858 22.4824 8.60334 22.7287 8.43625 22.9807C8.16677 23.3875 7.9017 23.7973 7.63733 24.2076C7.44022 24.5136 7.24008 24.818 7.05438 25.1308C6.87635 25.4305 6.70949 25.7372 6.54821 26.0465C6.30456 26.5136 6.06253 26.982 5.83377 27.4566C5.67576 27.7844 5.52379 28.1175 5.39999 28.4593C5.16005 29.1223 4.92175 29.7875 4.72045 30.4628C4.53195 31.0944 4.41 31.7444 4.37835 32.4055C4.34996 33.0015 4.29877 33.5998 4.32553 34.194C4.37068 35.1977 4.58245 36.176 4.9285 37.1216C5.06417 37.4923 5.19077 37.8702 5.3681 38.2214C5.67855 38.8362 6.00016 39.4483 6.36297 40.0329C6.74649 40.651 7.16492 41.2502 7.60312 41.8311C7.97128 42.3188 8.39157 42.7673 8.78603 43.2355C9.33804 43.8908 9.98546 44.4484 10.6366 44.996C11.1751 45.4491 11.7539 45.8578 12.3371 46.2529C12.9461 46.6658 13.5826 47.0384 14.206 47.43C14.3005 47.4894 14.3899 47.5566 14.4816 47.6201C14.4734 47.6346 14.465 47.649 14.4569 47.6634C14.4073 47.6502 14.3568 47.6399 14.3087 47.6229C13.6943 47.4072 13.0785 47.1952 12.4672 46.9716C12.257 46.8948 12.0566 46.7905 11.8539 46.6942C11.6091 46.5776 11.3594 46.4684 11.1246 46.3337C10.4453 45.9439 9.7937 45.511 9.1635 45.0449C8.34317 44.4382 7.61243 43.7386 6.9322 42.9802C6.52262 42.5234 6.12374 42.0596 5.77536 41.5551C5.09978 40.5772 4.50681 39.5553 4.05534 38.4501C3.75211 37.708 3.51427 36.9486 3.33159 36.1714C3.07467 35.0785 2.95994 33.9687 3.04465 32.847C3.0749 32.4474 3.19219 32.0548 3.23292 31.6552C3.29785 31.0188 3.45982 30.4051 3.62365 29.7912C3.6816 29.5745 3.75746 29.362 3.83426 29.151C4.07256 28.4959 4.32902 27.848 4.62969 27.2185C4.77677 26.9106 4.90802 26.5943 5.07302 26.2965C5.4328 25.6465 5.79933 24.9995 6.18215 24.363C6.55752 23.7389 6.94546 23.1215 7.34807 22.5143C7.74182 21.9204 8.16304 21.3449 8.56867 20.7589C9.17304 19.8858 9.77252 19.0091 10.3783 18.1369C10.6126 17.7997 10.8626 17.4732 11.0985 17.1369C11.5477 16.4967 12.0024 15.8598 12.3897 15.1784C12.466 15.0441 12.5607 14.92 12.6491 14.7927C13.2519 13.9254 13.7483 12.9955 14.2537 12.0709C14.7157 11.2261 15.1469 10.3651 15.4569 9.45327C15.7033 8.72812 15.9582 8.00483 16.115 7.24966C16.2069 6.80727 16.2663 6.36534 16.3035 5.91759C16.3293 5.60877 16.3752 5.30089 16.3873 4.9916C16.4099 4.40981 16.391 3.82988 16.2716 3.2553C16.2235 3.02374 16.2148 2.78428 16.1883 2.5483C16.2067 2.54062 16.2262 2.53224 16.2456 2.52386Z" fill="#02657C"/>
<path d="M155.84 34.5933C155.906 34.4572 155.956 34.3824 155.98 34.3C156.065 34.0027 156.144 33.7033 156.22 33.4036C156.772 31.2399 157.322 29.0754 157.875 26.9117C158.088 26.0783 158.153 26.0379 159.005 26.0505C159.65 26.0602 160.296 26.0573 160.942 26.0537C161.365 26.0513 161.438 26.0965 161.443 26.5308C161.452 27.1497 161.424 27.7686 161.422 28.3879C161.417 29.5315 161.42 30.6752 161.419 31.8192C161.418 32.9095 161.412 33.9995 161.416 35.0898C161.419 35.7224 161.442 36.3546 161.451 36.9868C161.457 37.4102 161.405 37.4429 160.997 37.4429C160.743 37.4429 160.572 37.4494 160.317 37.4429C160.185 37.4393 159.977 37.4506 159.831 37.4429C159.417 37.4429 159.33 37.39 159.329 37.0644C159.326 35.8129 159.338 34.5614 159.334 33.3099C159.329 31.8842 159.312 30.4586 159.299 29.033C159.299 28.9732 159.284 28.9134 159.227 28.8488C159.056 29.4253 158.885 30.0021 158.714 30.5786C158.215 32.2567 157.963 33.993 157.508 35.6816C157.382 36.1482 157.278 36.6204 157.167 37.0907C157.098 37.3799 156.956 37.4983 156.657 37.4967C156.55 37.4963 156.365 37.4971 156.257 37.4967C155.869 37.4954 155.56 37.4967 155.166 37.4967C154.823 37.5152 154.723 37.4724 154.628 37.1456C154.44 36.5001 154.278 35.8472 154.104 35.1976C154.034 34.9383 153.958 34.6806 153.89 34.4204C153.798 34.0693 153.711 33.7175 153.624 33.3652C153.595 33.2477 153.58 33.1269 153.549 33.0097C153.285 32.0228 153.017 31.0367 152.754 30.049C152.689 29.8022 152.641 29.5513 152.583 29.302C152.548 29.1489 152.511 28.9962 152.474 28.8431C152.444 28.8379 152.413 28.8326 152.383 28.8274C152.346 28.9114 152.283 28.993 152.276 29.0799C152.255 29.3344 152.247 29.5905 152.248 29.8462C152.256 31.9323 152.266 34.0184 152.28 36.1046C152.281 36.3732 152.314 36.6418 152.32 36.9109C152.328 37.2902 152.231 37.4062 151.862 37.4211C151.446 37.4381 151.028 37.4421 150.611 37.4328C150.209 37.4239 150.132 37.3593 150.124 36.9574C150.109 36.2443 150.122 35.5309 150.124 34.8179C150.128 33.2162 150.131 31.6144 150.136 30.0126C150.139 29.1384 150.143 28.2642 150.157 27.39C150.162 27.0923 150.212 26.8006 150.413 26.5566C150.678 26.2331 151.025 26.0771 151.434 26.0634C152.025 26.0432 152.617 26.0416 153.209 26.0226C153.416 26.0161 153.534 26.0929 153.592 26.2949C153.67 26.5659 153.783 26.8273 153.854 27.1C154.108 28.0756 154.349 29.0544 154.6 30.0308C154.757 30.6424 154.943 31.2472 155.081 31.8628C155.254 32.6377 155.415 33.4141 155.683 34.1635C155.726 34.2867 155.772 34.4099 155.84 34.5933Z" fill="#121212"/>
<path d="M139.486 33.8656C139.6 33.7218 139.857 33.4222 139.921 33.3144C140.155 32.9213 140.378 32.5222 140.608 32.1267C141.237 31.0456 141.866 29.9646 142.498 28.8852C142.98 28.0615 143.467 27.2398 143.953 26.4185C144.114 26.1458 144.238 26.0352 144.674 26.0352C144.994 26.0352 145.098 26.0352 145.378 26.0352C146.08 26.0352 146.527 26.5704 146.568 27.2321C146.606 27.8619 146.586 28.4958 146.587 29.1276C146.588 30.9172 146.587 32.7068 146.588 34.4968C146.589 35.2502 146.594 36.0036 146.595 36.7574C146.595 36.8782 146.59 36.9998 146.579 37.1198C146.559 37.3234 146.518 37.4596 146.243 37.4741C146.135 37.4797 146.015 37.4717 145.907 37.4741C145.558 37.4818 145.219 37.4733 144.871 37.4741C144.725 37.4745 144.572 37.4684 144.434 37.4268C144.269 37.3771 144.183 37.2596 144.189 37.0612C144.211 36.2549 144.222 35.4478 144.228 34.641C144.235 33.7264 144.23 32.8114 144.238 31.8968C144.242 31.4395 144.27 30.9826 144.274 30.5253C144.274 30.3888 144.227 30.2522 144.183 30.0135C144.022 30.1791 143.921 30.2595 143.85 30.3609C143.681 30.6029 143.515 30.8493 143.365 31.1038C142.34 32.8417 141.32 34.5816 140.3 36.3224C140.151 36.5777 140.012 36.839 139.87 37.0988C139.751 37.3165 139.653 37.3906 139.322 37.401C138.872 37.4151 138.355 37.407 137.872 37.4151C137.805 37.4163 137.737 37.4179 137.67 37.4127C137.347 37.3872 137.267 37.3056 137.267 36.9905C137.266 36.5195 137.269 36.0489 137.27 35.5778C137.276 33.4521 137.284 31.326 137.288 29.2003C137.289 28.299 137.281 27.3982 137.283 26.4969C137.284 26.0893 137.308 26.0703 137.722 26.0614C138.153 26.0521 138.583 26.0412 139.014 26.04C139.434 26.0388 139.524 26.1083 139.539 26.5224C139.56 27.1138 139.561 27.706 139.553 28.2978C139.535 29.5618 139.499 30.8259 139.486 32.0903C139.481 32.5197 139.486 32.9338 139.486 33.3719C139.489 33.4426 139.486 33.6917 139.486 33.8656Z" fill="#121212"/>
<path d="M60.4099 32.3685C60.437 32.9114 60.26 33.8705 59.8605 34.7859C59.3972 35.8471 58.6542 36.6555 57.6265 37.1887C56.4223 37.814 55.1445 37.9045 53.8223 37.7009C53.1238 37.5935 52.4415 37.4586 51.859 37.0287C50.7558 36.2151 49.8989 35.2302 49.6565 33.8236C49.5883 33.4261 49.4873 33.0326 49.4461 32.6327C49.3051 31.2644 49.5147 29.9353 50.107 28.7036C50.7343 27.3984 51.7657 26.4737 53.1788 26.0911C54.2 25.8148 55.2593 25.8188 56.3015 26.0435C58.0184 26.4135 59.1895 27.444 59.9058 29.0341C60.321 29.9564 60.3921 30.9271 60.4099 32.3685ZM51.701 31.7326C51.7532 32.2396 51.7794 32.7514 51.8626 33.2532C52.1184 34.7903 53.4276 35.9638 55.1368 35.839C56.5261 35.7376 57.5987 34.7834 57.9158 33.4729C58.1509 32.5006 58.1873 31.5016 57.9271 30.5142C57.8859 30.3583 57.8475 30.2012 57.8172 30.0428C57.698 29.415 57.3474 28.9371 56.8505 28.5586C56.1124 27.9963 55.2762 27.8533 54.3693 27.9603C53.2721 28.09 52.5567 28.6943 52.1188 29.6784C51.8279 30.3324 51.7524 31.0232 51.701 31.7326Z" fill="#121212"/>
<path d="M112.66 33.541C112.628 33.8589 112.622 34.1126 112.574 34.3574C112.247 36.0129 111.181 36.9788 109.618 37.4389C108.501 37.7678 107.366 37.7617 106.222 37.5371C105.002 37.2971 104.073 36.6415 103.392 35.6275C103.015 35.066 102.785 34.4435 102.647 33.7688C102.483 32.969 102.474 32.1743 102.461 31.3652C102.449 30.6223 102.561 29.9177 102.78 29.2245C103.4 27.2596 104.965 26.0214 106.887 25.8513C107.859 25.7653 108.824 25.7766 109.772 26.0404C111.254 26.4533 112.141 27.4486 112.554 28.9025C112.601 29.0706 112.647 29.2395 112.687 29.4095C112.757 29.6992 112.683 29.8592 112.403 29.8624C111.88 29.868 111.355 29.8373 110.835 29.7804C110.704 29.7658 110.568 29.6119 110.474 29.4907C110.261 29.214 110.076 28.9163 109.874 28.6307C109.639 28.2982 109.323 28.0889 108.921 28.0021C108.375 27.8841 107.825 27.8627 107.275 27.9286C106.283 28.0469 105.653 28.6493 105.225 29.5045C104.822 30.3096 104.703 31.166 104.783 32.0564C104.832 32.6062 104.902 33.1487 105.066 33.6824C105.248 34.2734 105.618 34.7226 106.037 35.1456C106.12 35.2296 106.229 35.2975 106.338 35.3459C107.43 35.8311 108.496 35.8582 109.525 35.1686C109.841 34.9569 110.026 34.6495 110.191 34.3235C110.24 34.2277 110.272 34.1239 110.313 34.0245C110.514 33.5357 110.687 33.4396 111.213 33.4929C111.507 33.5224 111.803 33.5289 112.098 33.5402C112.256 33.5462 112.416 33.541 112.66 33.541Z" fill="#121212"/>
<path d="M128.564 28.1168C128.555 28.274 128.54 28.4186 128.539 28.5636C128.538 29.7481 128.535 30.9325 128.54 32.117C128.547 33.7167 128.56 35.316 128.57 36.9158C128.573 37.3573 128.461 37.4587 128.027 37.4607C127.639 37.4623 127.25 37.4745 126.863 37.5044C126.338 37.5444 126.204 37.4341 126.205 36.9121C126.21 34.6103 126.215 32.3089 126.219 30.007C126.22 29.1207 126.217 28.2348 126.214 27.3485C126.212 26.8572 126.76 26.1826 127.242 26.1014C127.4 26.0747 127.563 26.0638 127.724 26.065C128.976 26.0747 130.227 26.0889 131.479 26.103C132.223 26.1115 132.914 26.3264 133.548 26.7025C134.036 26.9926 134.359 27.4256 134.546 27.9746C134.989 29.2706 134.914 30.5504 134.436 31.8087C134.24 32.325 133.837 32.7169 133.346 32.9584C132.978 33.139 132.566 33.2913 132.162 33.3244C131.279 33.3976 130.388 33.3943 129.501 33.4064C129.12 33.4116 129.12 33.3244 129.12 32.9356C129.103 32.5623 129.12 32.194 129.12 31.8506C129.12 31.6927 129.12 31.5347 129.12 31.3745C129.322 31.3664 129.439 31.3664 129.651 31.3745C129.999 31.3494 130.35 31.372 130.7 31.3664C130.901 31.3631 131.104 31.3575 131.302 31.3276C132.471 31.1494 132.787 30.1532 132.549 29.2459C132.38 28.6016 131.962 28.1604 131.277 28.1277C130.394 28.0849 129.509 28.1168 128.564 28.1168Z" fill="#121212"/>
<rect x="87.0304" y="27.0304" width="11.9393" height="4.93927" rx="1.54554" stroke="#121212" stroke-width="2.06073"/>
<rect x="92" y="38" width="9" height="2" rx="0.564246" transform="rotate(-90 92 38)" fill="#121212"/>
<path d="M120.234 28.1467C120.221 28.2861 120.206 28.3648 120.207 28.444C120.214 30.6772 120.224 32.9108 120.233 35.1439C120.235 35.7628 120.244 36.3817 120.242 37.0006C120.24 37.384 120.174 37.4446 119.791 37.4433C119.28 37.4417 118.769 37.4401 118.258 37.4304C117.932 37.4244 117.873 37.3605 117.873 37.058C117.874 35.1342 117.872 33.2101 117.876 31.2864C117.877 30.4259 117.889 29.5654 117.896 28.7046C117.896 28.6912 117.896 28.6775 117.896 28.6642C117.902 27.9786 117.724 28.0647 117.267 28.0954C116.598 28.1402 115.924 28.1402 115.252 28.1358C114.64 28.1322 114.483 27.8239 114.558 27.2422C114.642 26.5809 115.177 26.0844 115.881 26.0852C116.823 26.0864 117.765 26.0699 118.706 26.0695C120.038 26.0687 121.37 26.0759 122.702 26.08C122.837 26.0804 122.972 26.0779 123.106 26.0848C123.539 26.1066 123.611 26.1394 123.611 26.5983C123.611 26.8186 123.611 27.0114 123.611 27.2971C123.611 27.8191 123.529 27.9859 123.148 28.0392C122.763 28.0934 122.372 28.1164 121.983 28.1233C121.54 28.1309 121.096 28.101 120.652 28.097C120.521 28.0962 120.391 28.1269 120.234 28.1467Z" fill="#121212"/>
<path d="M41.6019 37.2861C41.5752 37.4764 41.4698 37.5596 41.267 37.5446C40.9995 37.5244 40.2249 37.5152 39.9591 37.5378C39.4521 37.5811 39.3598 37.0736 39.3275 36.5327C39.3162 36.3448 39.3041 36.1566 39.3036 35.9687C39.3008 33.17 39.2992 30.3717 39.3 27.5729C39.3 27.2235 39.3069 26.8733 39.3291 26.525C39.3493 26.2083 39.4119 26.1522 39.7226 26.1485C40.0316 26.1449 40.3411 26.1639 40.6505 26.1643C42.2785 26.1667 43.9065 26.1663 45.5349 26.1671L45.5372 26.1671C45.9533 26.1675 46.3691 26.1679 46.7852 26.1695C47.0874 26.1708 47.1315 26.2023 47.1411 26.5186C47.1533 26.9213 47.1864 27.3306 47.131 27.7261C47.0511 28.2969 46.9517 28.3356 46.4269 28.3405C44.9742 28.353 43.5215 28.353 42.0689 28.3607C41.9238 28.3615 41.7792 28.3793 41.5998 28.3918L41.6019 37.2861Z" fill="#121212"/>
<rect x="74.812" y="26.0855" width="2.53911" height="11.5671" rx="0.564246" fill="#121212"/>
<path d="M77.9155 30.8816C77.9155 30.57 78.1681 30.3174 78.4798 30.3174H79.8904C81.9159 30.3174 83.558 31.9594 83.558 33.985C83.558 36.0105 81.9159 37.6526 79.8904 37.6526H78.4798H75.7996C75.488 37.6526 75.2354 37.4 75.2354 37.0883V36.1009C75.2354 35.7893 75.488 35.5367 75.7996 35.5367H78.4637C78.4744 35.5367 78.4835 35.5369 78.4942 35.5373C78.6964 35.5456 80.9579 35.6021 80.9579 33.985C80.9579 32.7571 79.357 32.4199 78.4778 32.3273C78.1679 32.2947 77.9155 32.0396 77.9155 31.728V30.8816Z" fill="#121212"/>
<path fill-rule="evenodd" clip-rule="evenodd" d="M66.3485 26.1923H66.1876C65.9463 26.1923 65.7317 26.3458 65.6537 26.5742L62.0893 37.0127C61.9643 37.3788 62.2364 37.7593 62.6233 37.7593L64.0817 37.7593C64.337 37.7593 64.5605 37.5879 64.6266 37.3413L66.4382 30.5891C66.5877 30.0317 67.3786 30.0317 67.5281 30.5891L69.3397 37.3413C69.4059 37.5879 69.6294 37.7593 69.8847 37.7593L71.3431 37.7593C71.7299 37.7593 72.0021 37.3788 71.877 37.0127L68.3127 26.5742C68.2347 26.3458 68.0201 26.1923 67.7787 26.1923H67.6179H66.3485Z" fill="#121212"/>
</svg>
