<svg width="33" height="50" viewBox="0 0 33 50" fill="none" xmlns="http://www.w3.org/2000/svg">
<path d="M32.281 31.4662C32.4206 31.4662 32.5341 31.5794 32.5309 31.719C32.4759 34.1633 31.6237 36.5313 30.0919 38.485C28.5074 40.5059 26.2822 41.9731 23.7544 42.6636C21.2265 43.3542 18.534 43.2305 16.0857 42.3113C13.6373 41.392 11.567 39.7275 10.1889 37.5705C8.81083 35.4134 8.20037 32.8816 8.45019 30.3596C8.70002 27.8375 9.7965 25.463 11.5731 23.5965C13.3497 21.73 15.7095 20.4736 18.294 20.0179C20.795 19.577 23.3742 19.9092 25.6647 20.9638C25.7904 21.0216 25.8403 21.1732 25.7762 21.2959C25.7147 21.4136 25.5709 21.4608 25.4503 21.4053C23.2549 20.3937 20.7824 20.0748 18.3849 20.4975C15.9087 20.934 13.6478 22.1379 11.9456 23.9262C10.2434 25.7145 9.19283 27.9895 8.95346 30.4059C8.7141 32.8223 9.29899 35.2481 10.6193 37.3148C11.9397 39.3815 13.9233 40.9763 16.2691 41.857C18.6149 42.7377 21.1946 42.8562 23.6166 42.1946C26.0385 41.5329 28.1705 40.1273 29.6886 38.191C31.154 36.322 31.9703 34.0572 32.0252 31.719C32.0285 31.5794 32.1414 31.4662 32.281 31.4662Z" fill="#F15A4F"/>
<path d="M29.46 25.0625C29.8585 24.7788 30.4135 24.8599 30.6808 25.2696C31.6183 26.7068 32.2203 28.3276 32.4401 30.0192C32.6973 31.9981 32.4227 34.0075 31.6429 35.8547C30.863 37.7018 29.6039 39.3247 27.9865 40.5677C26.369 41.8106 24.4475 42.6319 22.4062 42.9527C20.3649 43.2736 18.2724 43.0832 16.3293 42.3998C14.3863 41.7165 12.658 40.5631 11.3102 39.0504C9.96237 37.5377 9.04032 35.7163 8.63248 33.7611C8.28578 32.099 8.32058 30.3876 8.72979 28.7461C8.85041 28.2622 9.36178 28.0036 9.83782 28.1521C10.3284 28.3051 10.5929 28.8309 10.4778 29.3318C10.17 30.6706 10.1544 32.0602 10.4362 33.4113C10.7819 35.0684 11.5634 36.6121 12.7057 37.8942C13.8481 39.1764 15.3129 40.1539 16.9597 40.7331C18.6066 41.3122 20.3801 41.4736 22.1102 41.2017C23.8403 40.9297 25.4689 40.2337 26.8398 39.1802C28.2107 38.1267 29.2778 36.7512 29.9388 35.1857C30.5998 33.6201 30.8325 31.917 30.6145 30.2398C30.4366 28.8708 29.9634 27.5565 29.2292 26.3802C28.9572 25.9443 29.0414 25.3605 29.46 25.0625Z" fill="#F15A4F"/>
<path d="M29.1942 27.1184C29.5693 26.9477 30.0143 27.1127 30.1589 27.4985C30.9366 29.5734 31.0652 31.8426 30.5174 34.0019C29.9082 36.4029 28.499 38.5246 26.5222 40.0173C24.5454 41.51 22.119 42.2846 19.6429 42.2133C17.1669 42.1419 14.7891 41.229 12.9015 39.625C11.0138 38.021 9.72915 35.8217 9.25918 33.3896C8.78921 30.9575 9.16202 28.4379 10.3161 26.2461C11.4703 24.0543 13.3368 22.3212 15.608 21.3325C17.6506 20.4434 19.9107 20.2041 22.0839 20.6368C22.4881 20.7172 22.7227 21.1298 22.6148 21.5275C22.5068 21.9251 22.0972 22.1569 21.6923 22.0808C19.8476 21.7344 17.935 21.947 16.2036 22.7007C14.2434 23.554 12.6325 25.0497 11.6365 26.9413C10.6404 28.8329 10.3187 31.0075 10.7243 33.1065C11.1299 35.2055 12.2386 37.1036 13.8677 38.4879C15.4968 39.8723 17.549 40.6601 19.6859 40.7217C21.8228 40.7832 23.917 40.1148 25.623 38.8265C27.3291 37.5382 28.5453 35.7071 29.071 33.6349C29.5354 31.8046 29.4366 29.8827 28.797 28.1181C28.6566 27.7307 28.8192 27.2891 29.1942 27.1184Z" fill="#F15A4F"/>
<path d="M21.7175 39.8221C21.782 40.0505 21.6456 40.288 21.4132 40.3355C20.2098 40.5811 18.9633 40.5794 17.7578 40.3286C16.4107 40.0483 15.154 39.465 14.0933 38.6278C13.0325 37.7906 12.1987 36.7239 11.6617 35.5172C11.1248 34.3105 10.9004 32.999 11.0074 31.6929C11.1145 30.3867 11.5498 29.124 12.2768 28.0108C13.0038 26.8976 14.0014 25.9663 15.1857 25.2951C16.37 24.6239 17.7066 24.2324 19.0831 24.1535C20.3118 24.0831 21.5404 24.2636 22.6868 24.6808C22.9127 24.7631 23.0121 25.0228 22.9104 25.2407C22.814 25.4472 22.572 25.5394 22.3578 25.4618C21.3327 25.0906 20.2346 24.9302 19.1364 24.9931C17.9012 25.0639 16.702 25.4152 15.6393 26.0174C14.5766 26.6197 13.6815 27.4553 13.0291 28.4542C12.3768 29.4531 11.9862 30.5862 11.8902 31.7581C11.7941 32.9301 11.9955 34.1069 12.4773 35.1897C12.9591 36.2725 13.7073 37.2296 14.659 37.9809C15.6108 38.7321 16.7384 39.2554 17.9472 39.5069C19.0215 39.7305 20.132 39.7335 21.2048 39.5177C21.4292 39.4725 21.6553 39.6019 21.7175 39.8221Z" fill="#F15A4F"/>
<path d="M27.8472 26.8506C28.1903 26.6641 28.6221 26.7901 28.7835 27.1456C29.6926 29.1479 29.9073 31.4046 29.3808 33.5536C28.7981 35.9323 27.3491 38.0082 25.3173 39.3753C23.2853 40.7425 20.8166 41.3027 18.3936 40.9464C15.9706 40.5901 13.7677 39.3429 12.2154 37.4487C10.663 35.5545 9.87301 33.1494 9.9997 30.7036C10.1264 28.2579 11.1607 25.9473 12.9004 24.2236C14.6402 22.4999 16.9602 21.4871 19.407 21.383C21.6177 21.2891 23.7881 21.943 25.5728 23.2278C25.8897 23.4559 25.9284 23.904 25.6781 24.2037C25.4278 24.5034 24.9835 24.5407 24.6639 24.3165C23.1516 23.2552 21.3259 22.7167 19.4671 22.7957C17.3719 22.8848 15.3853 23.7521 13.8956 25.2281C12.4059 26.704 11.5202 28.6825 11.4118 30.7768C11.3033 32.871 11.9798 34.9305 13.309 36.5525C14.6382 38.1745 16.5246 39.2424 18.5993 39.5475C20.6741 39.8526 22.788 39.3729 24.5279 38.2022C26.2678 37.0315 27.5085 35.254 28.0075 33.2172C28.4502 31.4101 28.2808 29.5142 27.5374 27.8229C27.3803 27.4654 27.5042 27.0371 27.8472 26.8506Z" fill="#F15A4F"/>
<path d="M13.1008 5.17188C13.2458 5.19227 13.2843 5.2933 13.3266 5.37766C13.4306 5.58506 13.5394 5.79223 13.6193 6.00937C13.8119 6.53216 13.9465 7.06724 14.0332 7.62132C14.1571 9.27108 13.7279 11.1141 13.4978 11.8294C13.2343 12.5144 12.9446 13.1906 12.6421 13.8601C12.4384 14.3106 12.1882 14.7407 11.9662 15.1833C11.6254 15.863 11.1805 16.4812 10.7945 17.1343C10.6097 17.4471 10.3952 17.7428 10.1922 18.0452C9.82955 18.5859 9.46945 19.1281 9.10088 19.6648C8.60547 20.3862 8.10512 21.1046 7.60266 21.8216C7.01117 22.6653 6.40746 23.5007 5.82396 24.3498C5.51718 24.7966 5.24257 25.2649 4.95293 25.7231C4.73353 26.07 4.50239 26.4102 4.29591 26.7645C4.0502 27.1856 3.81975 27.6159 3.5926 28.0471C3.3873 28.4372 3.19256 28.833 2.99806 29.2283C2.74154 29.7497 2.52355 30.2862 2.36452 30.8453C2.32036 31.0011 2.25858 31.1519 2.20948 31.3065C2.15804 31.4682 2.10871 31.6305 2.06502 31.7943C1.98938 32.0772 1.89823 32.3583 1.85031 32.6462C1.72065 33.422 1.54658 34.1946 1.57125 34.9876C1.58346 35.3802 1.62222 35.7723 1.65558 36.1641C1.67343 36.3715 1.69974 36.5789 1.73239 36.7847C1.84679 37.5036 2.02602 38.2055 2.30133 38.8821C2.35871 39.023 2.40743 39.1676 2.45602 39.3119L2.45825 39.3185C2.61399 39.7811 2.82987 40.2167 3.05444 40.6496C3.44414 41.4013 3.93697 42.0875 4.42346 42.7781C5.13663 43.7903 5.96631 44.704 6.88385 45.5369C7.33792 45.9491 7.82558 46.3257 8.3069 46.7076C8.68463 47.0075 9.06705 47.3032 9.4631 47.5785C10.2874 48.1511 11.1218 48.7096 11.9529 49.2725C12.2169 49.4514 12.4852 49.6245 12.7485 49.8041C12.8079 49.8446 12.8558 49.9014 12.9092 49.9505C12.9023 49.9651 12.8955 49.9799 12.8887 49.9945C12.7839 49.9945 12.6771 50.0085 12.5749 49.9922C11.986 49.8991 11.4142 49.7454 10.8608 49.5227C10.5425 49.3948 10.2054 49.3077 9.89791 49.1596C9.41354 48.9262 8.93903 48.6699 8.47509 48.3988C8.09901 48.1791 7.73303 47.9386 7.38373 47.6795C6.83382 47.2717 6.28931 46.8555 5.81292 46.3605C5.53291 46.0696 5.22589 45.8032 4.95716 45.5031C3.94543 44.3733 3.0037 43.1924 2.23227 41.884C1.65981 40.9133 1.15875 39.9106 0.791598 38.8481C0.585117 38.2502 0.414107 37.6391 0.312863 37.012C0.285849 36.8445 0.241688 36.6797 0.213969 36.5122C0.0394347 35.4606 0.00772227 34.4046 0.191653 33.3539C0.341992 32.4953 0.476827 31.6286 0.761531 30.8013C0.982342 30.1592 1.25342 29.5326 1.53108 28.9115C1.76129 28.3966 2.02555 27.8961 2.28959 27.3967C2.51674 26.9666 2.76033 26.5448 3.00558 26.1244C3.09085 25.9782 3.21746 25.8552 3.29944 25.7075C3.66871 25.0429 4.14157 24.4453 4.5496 23.8055C4.78639 23.4342 5.06146 23.0866 5.32009 22.7293C6.05652 21.7115 6.79459 20.6949 7.53007 19.6764C8.21552 18.7275 8.88383 17.7667 9.51549 16.7825C9.84576 16.268 10.1255 15.7221 10.456 15.2076C10.889 14.5337 11.2362 13.8163 11.5878 13.1023C11.9947 12.2757 12.343 11.4236 12.5812 10.5314C12.7287 9.97899 12.8969 9.43186 13.0308 8.87639C13.114 8.53227 13.1722 8.17887 13.2033 7.8264C13.2693 7.07118 13.2507 6.31433 13.1838 5.5591C13.1772 5.48356 13.145 5.41056 13.1278 5.33571C13.1166 5.28658 13.1114 5.23676 13.1008 5.17188Z" fill="#02657C"/>
<path d="M17.3867 44.8282C17.0601 44.7509 16.7277 44.6939 16.4082 44.591C15.9751 44.4518 15.5536 44.2735 15.1246 44.1192C14.4216 43.8662 13.7619 43.5128 13.1406 43.0942C12.3652 42.5719 11.5979 42.0313 10.9382 41.3419C10.4756 40.8585 9.9913 40.395 9.61039 39.8347C9.33794 39.434 9.09338 39.0119 8.84507 38.5936C8.54935 38.0956 8.30171 37.5703 8.08568 37.0292C7.77569 36.2525 7.53376 35.452 7.35856 34.6295C7.31049 34.4036 7.25692 34.1787 7.21762 33.9512C7.17437 33.7011 7.13244 33.4498 7.11136 33.1968C7.04309 32.3722 7.04879 31.5453 7.10917 30.7214C7.14188 30.2766 7.21125 29.8321 7.30127 29.396C7.42223 28.809 7.55022 28.2202 7.72893 27.6508C7.90303 27.0963 8.13859 26.5624 8.35989 26.0253C8.49666 25.6933 8.64771 25.3672 8.80841 25.0473C9.07186 24.5229 9.33224 23.9957 9.62291 23.4882C10.0236 22.7884 10.4499 22.1051 10.8679 21.4162C11.4003 20.5388 12.017 19.7251 12.5953 18.8822C12.8098 18.5697 13.017 18.2519 13.2337 17.9413C13.5981 17.4194 13.9716 16.9045 14.3338 16.3808C14.5924 16.0069 14.8361 15.6215 15.091 15.2449C15.3501 14.8617 15.6245 14.4897 15.875 14.1006C16.2403 13.5331 16.596 12.9582 16.9452 12.3796C17.232 11.9047 17.507 11.4218 17.7802 10.9381C17.9073 10.7132 18.0208 10.4795 18.1352 10.2469C18.2902 9.93192 18.4436 9.61597 18.5911 9.29702C18.7255 9.00609 18.8583 8.71377 18.9791 8.41612C19.5413 7.03165 19.9158 5.59044 20.0838 4.09595C20.1587 3.4307 20.1573 2.75827 20.1224 2.08469C20.0915 1.48592 19.9424 0.913094 19.8614 0.32637C19.8485 0.232096 19.8491 0.135968 19.841 0C20.0017 0.111415 20.0592 0.248773 20.1145 0.372233C20.2932 0.76925 20.4673 1.16974 20.6193 1.5788C20.9497 2.46781 21.0687 3.40129 21.0471 4.34773C21.0291 5.13482 20.9192 5.91496 20.7075 6.67494C20.6746 6.7933 20.65 6.91445 20.628 7.03582C20.5275 7.5929 20.3374 8.11847 20.1299 8.63825C19.9852 9.00099 19.8423 9.36465 19.6937 9.72553C19.4076 10.4209 19.0553 11.0794 18.6862 11.7282C18.4116 12.2112 18.1426 12.6988 17.8456 13.1664C17.3121 14.0059 16.7602 14.8323 16.2144 15.6632C15.9812 16.0183 15.7479 16.3734 15.5079 16.7234C15.0238 17.4298 14.5279 18.1273 14.0502 18.8386C13.4372 19.7517 12.8267 20.6667 12.2359 21.5958C11.7716 22.3261 11.3211 23.0678 10.8984 23.8254C10.5948 24.3695 10.3428 24.9463 10.0763 25.5129C9.87801 25.9342 9.67428 26.3546 9.50743 26.7901C9.27186 27.4044 9.04508 28.0238 8.9173 28.6777C8.87318 28.9035 8.77746 29.1187 8.7375 29.345C8.5757 30.2618 8.36274 31.1723 8.41038 32.1174C8.42048 32.3173 8.41302 32.5191 8.40424 32.7194C8.39019 33.0395 8.45319 33.3478 8.51313 33.6585C8.57877 33.9985 8.61039 34.3473 8.69535 34.6813C8.82224 35.1796 8.98075 35.669 9.13004 36.1608C9.18339 36.3368 9.23564 36.5154 9.31094 36.6815C9.4936 37.0848 9.68504 37.4834 9.88087 37.8797C10.1182 38.3601 10.446 38.7789 10.721 39.232C11.1742 39.9776 11.7735 40.5683 12.3742 41.1675C12.9393 41.7313 13.5538 42.2305 14.179 42.7111C14.7334 43.1373 15.3307 43.5007 15.9114 43.8885C16.0906 44.0082 16.2805 44.1102 16.4587 44.2313C16.7176 44.4071 16.9815 44.5711 17.2704 44.6869C17.3211 44.7073 17.3639 44.7495 17.4105 44.7817C17.403 44.7969 17.3949 44.8127 17.3867 44.8282Z" fill="#02657C"/>
<path d="M16.6542 2.58594C16.6918 2.65643 16.7345 2.72484 16.7664 2.79764C17.1111 3.58411 17.3558 4.39486 17.4798 5.24003C17.552 5.73115 17.5582 6.22203 17.5489 6.7143C17.5388 7.23061 17.497 7.74483 17.3899 8.25259C17.3644 8.37346 17.3435 8.49549 17.3093 8.61405C17.1531 9.15647 17.0065 9.70189 16.8291 10.2383C16.7104 10.5977 16.5655 10.952 16.3982 11.2938C16.0934 11.916 15.7779 12.5342 15.4389 13.1402C15.1611 13.6366 14.8511 14.118 14.5394 14.5969C14.1937 15.1282 13.8461 15.6595 13.4703 16.1721C12.9269 16.9133 12.3555 17.636 11.8001 18.3693C11.5392 18.7139 11.2926 19.0684 11.0309 19.4126C10.6976 19.8507 10.3502 20.2797 10.0184 20.719C9.65799 21.1956 9.30793 21.6793 8.95395 22.16C8.77216 22.4068 8.58719 22.6514 8.41081 22.9017C8.12634 23.3056 7.84654 23.7126 7.56748 24.1201C7.35941 24.424 7.14815 24.7263 6.95212 25.0369C6.7642 25.3346 6.58806 25.6392 6.41783 25.9463C6.16063 26.4102 5.90515 26.8754 5.66367 27.3466C5.49687 27.6723 5.33646 28.003 5.20577 28.3425C4.95251 29.0009 4.70096 29.6615 4.48847 30.3322C4.28949 30.9594 4.16077 31.6049 4.12736 32.2615C4.09739 32.8534 4.04334 33.4476 4.0716 34.0376C4.11925 35.0344 4.3428 36.006 4.70808 36.945C4.8513 37.3131 4.98493 37.6885 5.17212 38.0372C5.49982 38.6478 5.83931 39.2556 6.22229 39.8362C6.62712 40.45 7.06881 41.0452 7.53137 41.622C7.91999 42.1064 8.36364 42.5518 8.78003 43.0168C9.36271 43.6676 10.0461 44.2213 10.7335 44.7651C11.3019 45.2151 11.9128 45.621 12.5284 46.0134C13.1713 46.4234 13.8432 46.7934 14.5013 47.1824C14.601 47.2413 14.6953 47.3081 14.7921 47.3712C14.7835 47.3855 14.7747 47.3998 14.7661 47.4142C14.7138 47.401 14.6605 47.3908 14.6096 47.3739C13.9611 47.1597 13.3111 46.9492 12.6658 46.7271C12.4439 46.6508 12.2324 46.5473 12.0185 46.4516C11.76 46.3358 11.4965 46.2274 11.2486 46.0936C10.5315 45.7065 9.8437 45.2766 9.17847 44.8137C8.31255 44.2112 7.5412 43.5164 6.82315 42.7632C6.3908 42.3096 5.96976 41.849 5.60201 41.3479C4.88888 40.3768 4.26296 39.362 3.78639 38.2644C3.46631 37.5274 3.21525 36.7733 3.02241 36.0014C2.75121 34.916 2.6301 33.8139 2.71952 32.6999C2.75146 32.3031 2.87526 31.9132 2.91825 31.5164C2.98679 30.8843 3.15777 30.2748 3.33071 29.6652C3.39187 29.45 3.47196 29.239 3.55302 29.0294C3.80457 28.3788 4.07528 27.7354 4.39266 27.1102C4.54792 26.8045 4.68646 26.4904 4.86063 26.1946C5.24041 25.5491 5.62732 24.9066 6.03141 24.2745C6.42765 23.6546 6.83716 23.0415 7.26214 22.4385C7.67778 21.8487 8.12241 21.2772 8.55058 20.6952C9.18855 19.8281 9.82135 18.9575 10.4608 18.0913C10.7082 17.7564 10.972 17.4321 11.2211 17.0982C11.6952 16.4624 12.1752 15.8298 12.584 15.1531C12.6645 15.0198 12.7645 14.8966 12.8579 14.7702C13.4941 13.9088 14.0181 12.9853 14.5516 12.0671C15.0393 11.2282 15.4945 10.373 15.8217 9.46755C16.0818 8.7474 16.3508 8.0291 16.5164 7.27914C16.6134 6.8398 16.676 6.40091 16.7154 5.95625C16.7426 5.64956 16.791 5.3438 16.8038 5.03665C16.8276 4.45887 16.8077 3.88294 16.6817 3.31232C16.6308 3.08237 16.6218 2.84455 16.5938 2.6102C16.6132 2.60258 16.6338 2.59426 16.6542 2.58594Z" fill="#02657C"/>
</svg>
