<svg width="162" height="51" viewBox="0 0 162 51" fill="none" xmlns="http://www.w3.org/2000/svg">
<path d="M32.1276 31.493C32.2653 31.493 32.3772 31.6046 32.3743 31.7423C32.3219 34.2456 31.4812 36.6711 29.9686 38.6717C28.4058 40.7388 26.2112 42.2393 23.718 42.9457C21.2249 43.652 18.5693 43.5254 16.1546 42.5852C13.7399 41.6451 11.698 39.9426 10.3388 37.7364C8.97969 35.5301 8.37761 32.9406 8.624 30.3611C8.8704 27.7816 9.95182 25.3529 11.7041 23.4438C13.4563 21.5348 15.7836 20.2497 18.3326 19.7836C20.7998 19.3326 23.3443 19.6726 25.6037 20.7518C25.7279 20.8111 25.7773 20.9613 25.7154 21.0843C25.6534 21.2072 25.5036 21.2565 25.3794 21.1972C23.217 20.1668 20.7827 19.8426 18.4223 20.2741C15.9801 20.7207 13.7502 21.9519 12.0714 23.781C10.3926 25.6101 9.35644 27.937 9.12036 30.4085C8.88429 32.88 9.46115 35.361 10.7634 37.4748C12.0656 39.5887 14.022 41.2198 16.3355 42.1206C18.6491 43.0214 21.1934 43.1426 23.5821 42.4659C25.9709 41.7892 28.0735 40.3515 29.5708 38.371C31.018 36.457 31.8232 34.137 31.8756 31.7423C31.8786 31.6046 31.9899 31.493 32.1276 31.493Z" fill="#F15A4F"/>
<path d="M29.32 24.9619C29.7231 24.6643 30.2944 24.7482 30.5605 25.1728C31.4787 26.6384 32.0686 28.2898 32.2845 30.013C32.5382 32.037 32.2674 34.0922 31.4982 35.9815C30.729 37.8707 29.4873 39.5306 27.892 40.8019C26.2968 42.0732 24.4017 42.9132 22.3884 43.2413C20.3751 43.5695 18.3113 43.3748 16.395 42.6758C14.4786 41.9769 12.774 40.7973 11.4447 39.2501C10.1154 37.7028 9.20602 35.84 8.80379 33.8402C8.46133 32.1376 8.49627 30.3844 8.90162 28.7031C9.01907 28.2159 9.53419 27.955 10.011 28.1092C10.4877 28.2634 10.745 28.7744 10.6342 29.2631C10.3206 30.6468 10.3017 32.0847 10.5828 33.4824C10.9237 35.1773 11.6945 36.7562 12.8211 38.0675C13.9478 39.3789 15.3925 40.3787 17.0167 40.9711C18.6409 41.5634 20.3901 41.7285 22.0965 41.4503C23.8028 41.1722 25.4091 40.4603 26.7611 39.3828C28.1132 38.3053 29.1656 36.8985 29.8175 35.2972C30.4695 33.696 30.699 31.9541 30.484 30.2386C30.3067 28.824 29.8322 27.4666 29.0954 26.254C28.8352 25.8258 28.9168 25.2596 29.32 24.9619Z" fill="#F15A4F"/>
<path d="M29.243 27.0773C29.6158 26.9077 30.0582 27.0716 30.2019 27.4552C30.975 29.5177 31.1028 31.7733 30.5582 33.9196C29.9527 36.3062 28.552 38.4153 26.587 39.8991C24.622 41.3828 22.2101 42.1527 19.7489 42.0818C17.2876 42.011 14.924 41.1035 13.0477 39.5091C11.1714 37.9147 9.89441 35.7285 9.42725 33.311C8.9601 30.8934 9.33067 28.3889 10.4779 26.2102C11.6251 24.0315 13.4805 22.3088 15.7381 21.3261C17.7684 20.4423 20.0151 20.2044 22.1753 20.6345C22.577 20.7145 22.8102 21.1245 22.7029 21.5198C22.5956 21.9151 22.1885 22.1455 21.7859 22.0699C19.9523 21.7255 18.0511 21.9369 16.3301 22.6861C14.3817 23.5342 12.7804 25.021 11.7903 26.9013C10.8002 28.7816 10.4804 30.9431 10.8836 33.0296C11.2867 35.116 12.3889 37.0028 14.0082 38.3788C15.6275 39.7549 17.6674 40.538 19.7916 40.5992C21.9157 40.6604 23.9973 39.9959 25.6932 38.7154C27.389 37.4348 28.5979 35.6146 29.1205 33.5548C29.5821 31.7354 29.484 29.8251 28.8481 28.071C28.7086 27.686 28.8702 27.247 29.243 27.0773Z" fill="#F15A4F"/>
<path d="M22.2146 39.6228C22.277 39.8555 22.1391 40.0959 21.9035 40.1463C20.7202 40.3993 19.4948 40.397 18.3096 40.1374C16.9821 39.8466 15.7437 39.2416 14.6984 38.3732C13.6531 37.5047 12.8314 36.3982 12.3022 35.1465C11.7731 33.8947 11.552 32.5343 11.6575 31.1794C11.7629 29.8245 12.1919 28.5147 12.9083 27.3599C13.6248 26.2052 14.6078 25.2391 15.7749 24.5429C16.942 23.8467 18.2591 23.4406 19.6156 23.3587C20.8268 23.2857 22.0378 23.473 23.1676 23.906C23.3926 23.9923 23.4916 24.2511 23.394 24.4714C23.2963 24.6916 23.039 24.7897 22.8135 24.7048C21.8117 24.3276 20.74 24.165 19.6682 24.2297C18.451 24.3031 17.2691 24.6675 16.2219 25.2922C15.1747 25.9169 14.2926 26.7837 13.6497 27.8199C13.0069 28.8561 12.622 30.0314 12.5273 31.2471C12.4327 32.4629 12.6311 33.6836 13.1059 34.8067C13.5807 35.9299 14.318 36.9228 15.2559 37.7021C16.1939 38.4813 17.3051 39.0242 18.4962 39.2851C19.5451 39.5148 20.6291 39.52 21.6772 39.3023C21.9131 39.2534 22.1522 39.3901 22.2146 39.6228Z" fill="#F15A4F"/>
<path d="M27.9042 26.8113C28.2452 26.6259 28.6744 26.7511 28.8349 27.1045C29.7385 29.0949 29.952 31.338 29.4287 33.4742C28.8494 35.8387 27.4091 37.9021 25.3894 39.2611C23.3696 40.62 20.9157 41.1769 18.5072 40.8227C16.0987 40.4685 13.9089 39.2288 12.3659 37.346C10.8229 35.4631 10.0376 33.0724 10.1635 30.6413C10.2894 28.2102 11.3176 25.9134 13.0469 24.2C14.7762 22.4867 17.0824 21.4799 19.5145 21.3764C21.7119 21.283 23.8694 21.9331 25.6434 23.2101C25.9584 23.4369 25.9969 23.8824 25.7481 24.1803C25.4993 24.4781 25.0577 24.5152 24.74 24.2923C23.2367 23.2374 21.422 22.7021 19.5742 22.7807C17.4916 22.8692 15.5169 23.7313 14.0361 25.1985C12.5553 26.6656 11.6749 28.6323 11.5671 30.714C11.4593 32.7957 12.1317 34.8428 13.453 36.4551C14.7742 38.0674 16.6493 39.1289 18.7117 39.4322C20.774 39.7354 22.8753 39.2586 24.6048 38.095C26.3342 36.9313 27.5675 35.1644 28.0635 33.1398C28.5036 31.3435 28.3352 29.4589 27.5963 27.7778C27.4401 27.4225 27.5633 26.9967 27.9042 26.8113Z" fill="#F15A4F"/>
<path d="M12.9119 5.03207C13.0555 5.05255 13.0936 5.15402 13.1355 5.23873C13.2386 5.44701 13.3464 5.65506 13.4255 5.87312C13.6163 6.39813 13.7497 6.93547 13.8355 7.4919C13.9583 9.14867 13.5331 10.9995 13.3052 11.7178C13.0441 12.4057 12.7571 13.0848 12.4574 13.7571C12.2556 14.2095 12.0078 14.6415 11.7879 15.0859C11.4502 15.7685 11.0094 16.3894 10.6271 17.0452C10.4439 17.3594 10.2314 17.6563 10.0304 17.96C9.67105 18.5029 9.31429 19.0475 8.94916 19.5865C8.45836 20.3109 7.96267 21.0324 7.46488 21.7524C6.8789 22.5997 6.28082 23.4387 5.70275 24.2913C5.39882 24.74 5.12677 25.2103 4.83983 25.6704C4.62247 26.0188 4.39348 26.3604 4.18892 26.7163C3.94549 27.1391 3.7172 27.5713 3.49216 28.0043C3.28876 28.396 3.09584 28.7935 2.90315 29.1905C2.64902 29.7141 2.43306 30.2529 2.27551 30.8144C2.23176 30.9708 2.17056 31.1223 2.12192 31.2775C2.07095 31.44 2.02208 31.6029 1.9788 31.7674C1.90386 32.0515 1.81357 32.3338 1.76609 32.6229C1.63763 33.402 1.46519 34.1779 1.48962 34.9742C1.50172 35.3685 1.54012 35.7622 1.57317 36.1558C1.59086 36.364 1.61692 36.5723 1.64927 36.779C1.7626 37.5009 1.94016 38.2058 2.21291 38.8853C2.26975 39.0267 2.31802 39.172 2.36616 39.3169L2.36837 39.3235C2.52266 39.788 2.73652 40.2255 2.959 40.6602C3.34508 41.4152 3.83332 42.1042 4.31528 42.7977C5.02181 43.8143 5.84377 44.7319 6.75277 45.5683C7.20261 45.9823 7.68573 46.3604 8.16257 46.7439C8.53678 47.0451 8.91565 47.342 9.30801 47.6185C10.1246 48.1935 10.9512 48.7544 11.7746 49.3197C12.0362 49.4993 12.3019 49.6732 12.5628 49.8535C12.6217 49.8942 12.6692 49.9513 12.722 50.0006C12.7152 50.0153 12.7085 50.0302 12.7017 50.0448C12.5979 50.0448 12.4921 50.0588 12.3908 50.0425C11.8074 49.9489 11.241 49.7946 10.6927 49.571C10.3773 49.4425 10.0434 49.355 9.73877 49.2063C9.25891 48.972 8.78882 48.7146 8.3292 48.4423C7.95662 48.2217 7.59404 47.9801 7.24799 47.72C6.7032 47.3104 6.16376 46.8924 5.69181 46.3953C5.41441 46.1033 5.11025 45.8356 4.84402 45.5343C3.8417 44.3998 2.90874 43.2138 2.14449 41.8999C1.57736 40.9251 1.08097 39.9181 0.717232 38.8511C0.512673 38.2507 0.343254 37.637 0.242953 37.0073C0.21619 36.839 0.17244 36.6735 0.14498 36.5053C-0.0279298 35.4492 -0.059347 34.3887 0.122871 33.3336C0.27181 32.4714 0.405391 31.601 0.687445 30.7702C0.906199 30.1253 1.17476 29.4961 1.44983 28.8724C1.67789 28.3553 1.9397 27.8526 2.20127 27.3511C2.42631 26.9192 2.66764 26.4956 2.9106 26.0735C2.99507 25.9266 3.12051 25.8031 3.20173 25.6548C3.56756 24.9874 4.03602 24.3872 4.44025 23.7447C4.67483 23.3719 4.94734 23.0228 5.20357 22.6639C5.93314 21.6418 6.66434 20.6209 7.39297 19.5981C8.07205 18.6451 8.73413 17.6803 9.35991 16.6919C9.68711 16.1753 9.96427 15.627 10.2917 15.1104C10.7206 14.4336 11.0646 13.7131 11.4129 12.9961C11.816 12.166 12.1611 11.3103 12.3971 10.4144C12.5433 9.85957 12.7099 9.31013 12.8425 8.7523C12.9249 8.40672 12.9826 8.05182 13.0133 7.69786C13.0787 6.93943 13.0604 6.17937 12.994 5.42095C12.9875 5.34508 12.9556 5.27177 12.9386 5.19661C12.9275 5.14727 12.9224 5.09723 12.9119 5.03207Z" fill="white"/>
<path d="M16.8177 45.0383C16.4714 44.9606 16.1191 44.9034 15.7805 44.8C15.3214 44.6602 14.8745 44.481 14.4198 44.326C13.6746 44.0719 12.9753 43.7167 12.3167 43.2962C11.4948 42.7714 10.6814 42.2283 9.98211 41.5357C9.49177 41.05 8.9784 40.5844 8.57463 40.0214C8.28583 39.6188 8.02658 39.1948 7.76338 38.7745C7.44991 38.2742 7.1874 37.7464 6.95841 37.2027C6.62981 36.4224 6.37335 35.6182 6.18764 34.7918C6.13668 34.5649 6.0799 34.3389 6.03824 34.1104C5.99239 33.859 5.94794 33.6065 5.9256 33.3524C5.85323 32.5239 5.85928 31.6931 5.92328 30.8654C5.95795 30.4185 6.03149 29.972 6.1269 29.5337C6.25513 28.944 6.39081 28.3525 6.58024 27.7805C6.76478 27.2233 7.01449 26.6869 7.24907 26.1472C7.39405 25.8138 7.55416 25.4861 7.72451 25.1647C8.00377 24.6378 8.27978 24.1082 8.5879 23.5983C9.01261 22.8952 9.46454 22.2087 9.90764 21.5166C10.472 20.6351 11.1257 19.8175 11.7387 18.9707C11.966 18.6568 12.1857 18.3375 12.4154 18.0254C12.8017 17.5011 13.1976 16.9837 13.5816 16.4576C13.8557 16.082 14.114 15.6947 14.3842 15.3163C14.6588 14.9314 14.9497 14.5577 15.2152 14.1667C15.6025 13.5965 15.9795 13.0189 16.3497 12.4376C16.6537 11.9605 16.9453 11.4753 17.2348 10.9894C17.3695 10.7634 17.4898 10.5286 17.6111 10.295C17.7754 9.97847 17.938 9.66105 18.0944 9.34059C18.2368 9.0483 18.3776 8.75461 18.5056 8.45557C19.1016 7.06461 19.4986 5.61664 19.6767 4.11515C19.756 3.44678 19.7546 2.7712 19.7176 2.09446C19.6848 1.49288 19.5268 0.917374 19.4409 0.3279C19.4272 0.233184 19.4279 0.136605 19.4193 0C19.5896 0.111937 19.6506 0.249939 19.7092 0.373978C19.8987 0.772856 20.0832 1.17522 20.2443 1.5862C20.5945 2.47937 20.7206 3.41723 20.6978 4.36811C20.6787 5.15889 20.5622 5.94268 20.3378 6.70623C20.3029 6.82515 20.2768 6.94686 20.2536 7.0688C20.147 7.62849 19.9455 8.15653 19.7255 8.67874C19.5722 9.04318 19.4207 9.40855 19.2631 9.77112C18.9599 10.4697 18.5864 11.1314 18.1952 11.7832C17.9041 12.2684 17.619 12.7583 17.3041 13.2281C16.7386 14.0715 16.1536 14.9018 15.575 15.7366C15.3279 16.0934 15.0805 16.4501 14.8261 16.8018C14.313 17.5115 13.7873 18.2123 13.2809 18.9269C12.6311 19.8443 11.9839 20.7635 11.3577 21.697C10.8655 22.4307 10.388 23.1759 9.93999 23.9371C9.61814 24.4838 9.35098 25.0632 9.06846 25.6325C8.85831 26.0558 8.64235 26.4782 8.46549 26.9157C8.21578 27.5328 7.97538 28.1551 7.83994 28.8121C7.79316 29.039 7.6917 29.2552 7.64934 29.4826C7.47783 30.4036 7.2521 31.3185 7.30259 32.268C7.3133 32.4688 7.30539 32.6715 7.29608 32.8728C7.28118 33.1944 7.34798 33.5041 7.41151 33.8162C7.48109 34.1579 7.5146 34.5083 7.60466 34.8439C7.73917 35.3445 7.9072 35.8362 8.06544 36.3303C8.12199 36.5071 8.17738 36.6866 8.2572 36.8534C8.45082 37.2586 8.65375 37.6591 8.86134 38.0573C9.11291 38.5399 9.46035 38.9607 9.75195 39.4159C10.2323 40.165 10.8676 40.7584 11.5043 41.3605C12.1033 41.9269 12.7547 42.4284 13.4175 42.9113C14.0051 43.3395 14.6383 43.7046 15.2539 44.0942C15.4438 44.2145 15.6451 44.3169 15.834 44.4386C16.1084 44.6153 16.3881 44.78 16.6944 44.8964C16.7481 44.9169 16.7935 44.9592 16.8429 44.9916C16.8349 45.0069 16.8263 45.0227 16.8177 45.0383Z" fill="white"/>
<path d="M16.2458 2.52386C16.2814 2.59484 16.3219 2.66373 16.3522 2.73703C16.6787 3.52897 16.9104 4.34535 17.028 5.19639C17.0964 5.69092 17.1022 6.18521 17.0934 6.6809C17.0838 7.20079 17.0443 7.71859 16.9428 8.22987C16.9186 8.35158 16.8988 8.47446 16.8665 8.59384C16.7185 9.14003 16.5795 9.68925 16.4115 10.2294C16.2991 10.5913 16.1618 10.948 16.0033 11.2922C15.7145 11.9187 15.4157 12.5412 15.0946 13.1514C14.8313 13.6513 14.5377 14.136 14.2423 14.6182C13.9149 15.1532 13.5856 15.6882 13.2296 16.2044C12.7148 16.9507 12.1735 17.6784 11.6473 18.4169C11.4002 18.7638 11.1665 19.1208 10.9187 19.4673C10.6029 19.9086 10.2738 20.3405 9.9594 20.7829C9.61801 21.2628 9.28638 21.7498 8.95104 22.2339C8.77883 22.4824 8.60359 22.7287 8.4365 22.9807C8.16701 23.3875 7.90195 23.7973 7.63758 24.2076C7.44047 24.5136 7.24033 24.818 7.05462 25.1308C6.87659 25.4305 6.70973 25.7372 6.54846 26.0465C6.3048 26.5136 6.06278 26.982 5.83402 27.4566C5.676 27.7844 5.52404 28.1175 5.40023 28.4593C5.1603 29.1223 4.92199 29.7875 4.72069 30.4628C4.53219 31.0944 4.41025 31.7444 4.3786 32.4055C4.35021 33.0015 4.29901 33.5998 4.32577 34.194C4.37092 35.1977 4.58269 36.176 4.92874 37.1216C5.06442 37.4923 5.19102 37.8702 5.36835 38.2214C5.67879 38.8362 6.00041 39.4483 6.36322 40.0329C6.74673 40.651 7.16516 41.2502 7.60337 41.8311C7.97153 42.3188 8.39182 42.7673 8.78627 43.2355C9.33828 43.8908 9.9857 44.4484 10.6368 44.996C11.1754 45.4491 11.7541 45.8578 12.3373 46.2529C12.9463 46.6658 13.5828 47.0384 14.2063 47.43C14.3008 47.4894 14.3901 47.5566 14.4818 47.6201C14.4737 47.6346 14.4653 47.649 14.4571 47.6634C14.4076 47.6502 14.3571 47.6399 14.3089 47.6229C13.6945 47.4072 13.0788 47.1952 12.4674 46.9716C12.2573 46.8948 12.0569 46.7905 11.8542 46.6942C11.6094 46.5776 11.3597 46.4684 11.1249 46.3337C10.4456 45.9439 9.79394 45.511 9.16374 45.0449C8.34341 44.4382 7.61268 43.7386 6.93244 42.9802C6.52286 42.5234 6.12398 42.0596 5.7756 41.5551C5.10002 40.5772 4.50706 39.5553 4.05559 38.4501C3.75236 37.708 3.51452 36.9486 3.33183 36.1714C3.07491 35.0785 2.96018 33.9687 3.04489 32.847C3.07515 32.4474 3.19244 32.0548 3.23316 31.6552C3.29809 31.0188 3.46006 30.4051 3.6239 29.7912C3.68184 29.5745 3.75771 29.362 3.8345 29.151C4.07281 28.4959 4.32926 27.848 4.62993 27.2185C4.77701 26.9106 4.90826 26.5943 5.07326 26.2965C5.43304 25.6465 5.79957 24.9995 6.18239 24.363C6.55777 23.7389 6.94571 23.1215 7.34831 22.5143C7.74207 21.9204 8.16329 21.3449 8.56891 20.7589C9.17328 19.8858 9.77276 19.0091 10.3785 18.1369C10.6129 17.7997 10.8628 17.4732 11.0988 17.1369C11.5479 16.4967 12.0027 15.8598 12.3899 15.1784C12.4662 15.0441 12.561 14.92 12.6494 14.7927C13.2521 13.9254 13.7485 12.9955 14.254 12.0709C14.7159 11.2261 15.1471 10.3651 15.4571 9.45327C15.7036 8.72812 15.9584 8.00483 16.1153 7.24966C16.2072 6.80727 16.2665 6.36534 16.3038 5.91759C16.3296 5.60877 16.3754 5.30089 16.3875 4.9916C16.4101 4.40981 16.3913 3.82988 16.2719 3.2553C16.2237 3.02374 16.2151 2.78428 16.1886 2.5483C16.2069 2.54062 16.2265 2.53224 16.2458 2.52386Z" fill="white"/>
<path d="M155.84 34.5933C155.906 34.4571 155.957 34.3824 155.98 34.3C156.065 34.0027 156.144 33.7033 156.22 33.4036C156.773 31.2399 157.322 29.0754 157.875 26.9117C158.089 26.0783 158.153 26.0379 159.005 26.0504C159.65 26.0601 160.296 26.0573 160.942 26.0537C161.365 26.0512 161.438 26.0965 161.444 26.5308C161.452 27.1496 161.424 27.7685 161.422 28.3878C161.417 29.5315 161.42 30.6751 161.419 31.8192C161.418 32.9095 161.412 33.9994 161.417 35.0898C161.419 35.7224 161.442 36.3546 161.451 36.9868C161.457 37.4102 161.406 37.4429 160.998 37.4429C160.743 37.4429 160.572 37.4494 160.317 37.4429C160.185 37.4393 159.977 37.4506 159.832 37.4429C159.417 37.4429 159.33 37.39 159.329 37.0644C159.326 35.8129 159.339 34.5614 159.334 33.3098C159.329 31.8842 159.312 30.4586 159.299 29.033C159.299 28.9732 159.284 28.9134 159.227 28.8488C159.057 29.4252 158.886 30.0021 158.714 30.5786C158.215 32.2567 157.963 33.993 157.508 35.6816C157.382 36.1482 157.279 36.6204 157.167 37.0906C157.099 37.3799 156.956 37.4982 156.657 37.4966C156.55 37.4962 156.365 37.497 156.257 37.4966C155.869 37.4954 155.56 37.4966 155.167 37.4966C154.824 37.5152 154.723 37.4724 154.628 37.1456C154.44 36.5 154.278 35.8472 154.104 35.1976C154.034 34.9383 153.958 34.6805 153.89 34.4204C153.798 34.0693 153.711 33.7175 153.624 33.3652C153.595 33.2476 153.58 33.1268 153.549 33.0097C153.285 32.0228 153.017 31.0367 152.755 30.049C152.689 29.8021 152.641 29.5513 152.584 29.302C152.549 29.1489 152.511 28.9962 152.474 28.8431C152.444 28.8379 152.414 28.8326 152.383 28.8273C152.346 28.9114 152.284 28.993 152.276 29.0798C152.255 29.3343 152.247 29.5905 152.248 29.8462C152.257 31.9323 152.266 34.0184 152.28 36.1045C152.282 36.3732 152.314 36.6418 152.32 36.9109C152.328 37.2902 152.231 37.4061 151.863 37.4211C151.446 37.4381 151.028 37.4421 150.611 37.4328C150.21 37.4239 150.132 37.3593 150.124 36.9573C150.109 36.2443 150.122 35.5309 150.124 34.8179C150.128 33.2161 150.131 31.6144 150.136 30.0126C150.14 29.1384 150.143 28.2642 150.157 27.39C150.162 27.0923 150.212 26.8006 150.413 26.5566C150.678 26.233 151.025 26.0771 151.434 26.0634C152.025 26.0432 152.618 26.0415 153.209 26.0226C153.416 26.0161 153.534 26.0929 153.592 26.2948C153.67 26.5659 153.784 26.8273 153.855 27.1C154.109 28.0756 154.349 29.0544 154.6 30.0308C154.757 30.6424 154.943 31.2472 155.081 31.8628C155.254 32.6376 155.416 33.4141 155.683 34.1634C155.726 34.2867 155.772 34.4099 155.84 34.5933Z" fill="white"/>
<path d="M139.486 33.8655C139.6 33.7217 139.857 33.4222 139.921 33.3143C140.155 32.9212 140.378 32.5221 140.608 32.1266C141.237 31.0456 141.866 29.9646 142.498 28.8851C142.98 28.0614 143.467 27.2397 143.953 26.4185C144.114 26.1458 144.238 26.0351 144.674 26.0351C144.994 26.0351 145.098 26.0351 145.378 26.0351C146.08 26.0351 146.527 26.5704 146.568 27.2321C146.606 27.8619 146.586 28.4957 146.587 29.1275C146.588 30.9171 146.587 32.7067 146.588 34.4967C146.589 35.2501 146.594 36.0036 146.595 36.7574C146.595 36.8782 146.59 36.9998 146.579 37.1197C146.559 37.3233 146.518 37.4595 146.243 37.474C146.135 37.4797 146.015 37.4716 145.907 37.474C145.558 37.4817 145.219 37.4732 144.871 37.474C144.725 37.4744 144.572 37.4684 144.434 37.4268C144.269 37.3771 144.183 37.2595 144.189 37.0612C144.211 36.2548 144.222 35.4477 144.228 34.641C144.235 33.7264 144.23 32.8114 144.238 31.8968C144.242 31.4395 144.27 30.9826 144.274 30.5253C144.274 30.3887 144.227 30.2522 144.183 30.0134C144.022 30.1791 143.921 30.2594 143.85 30.3608C143.681 30.6028 143.515 30.8493 143.365 31.1038C142.34 32.8417 141.32 34.5816 140.3 36.3223C140.151 36.5776 140.012 36.839 139.87 37.0987C139.751 37.3165 139.653 37.3905 139.322 37.4009C138.872 37.415 138.355 37.407 137.872 37.415C137.805 37.4163 137.737 37.4179 137.67 37.4126C137.347 37.3872 137.267 37.3056 137.267 36.9905C137.266 36.5194 137.269 36.0488 137.27 35.5778C137.276 33.4521 137.284 31.3259 137.288 29.2002C137.289 28.299 137.281 27.3981 137.283 26.4968C137.284 26.0892 137.308 26.0702 137.722 26.0614C138.153 26.0521 138.583 26.0412 139.014 26.0399C139.434 26.0387 139.524 26.1082 139.539 26.5223C139.56 27.1137 139.561 27.7059 139.553 28.2978C139.535 29.5618 139.499 30.8258 139.486 32.0903C139.481 32.5197 139.486 32.9338 139.486 33.3718C139.489 33.4425 139.486 33.6917 139.486 33.8655Z" fill="white"/>
<path d="M60.4102 32.3685C60.4372 32.9114 60.2603 33.8705 59.8608 34.7859C59.3974 35.8471 58.6545 36.6555 57.6268 37.1887C56.4225 37.814 55.1448 37.9045 53.8226 37.7009C53.1241 37.5935 52.4418 37.4586 51.8592 37.0287C50.756 36.2151 49.8992 35.2302 49.6568 33.8236C49.5885 33.4261 49.4875 33.0326 49.4463 32.6327C49.3053 31.2644 49.515 29.9353 50.1072 28.7036C50.7346 27.3984 51.7659 26.4737 53.179 26.0911C54.2003 25.8148 55.2595 25.8188 56.3017 26.0435C58.0186 26.4135 59.1898 27.444 59.906 29.0341C60.3213 29.9564 60.3924 30.9271 60.4102 32.3685ZM51.7013 31.7326C51.7534 32.2396 51.7797 32.7514 51.8629 33.2532C52.1186 34.7903 53.4279 35.9638 55.1371 35.839C56.5264 35.7376 57.5989 34.7834 57.916 33.4729C58.1511 32.5006 58.1875 31.5016 57.9273 30.5142C57.8861 30.3583 57.8478 30.2012 57.8175 30.0428C57.6983 29.415 57.3476 28.9371 56.8507 28.5586C56.1127 27.9963 55.2765 27.8533 54.3695 27.9603C53.2723 28.09 52.5569 28.6943 52.119 29.6784C51.8281 30.3324 51.7526 31.0232 51.7013 31.7326Z" fill="white"/>
<path d="M112.66 33.5409C112.628 33.8589 112.622 34.1126 112.574 34.3574C112.247 36.0129 111.181 36.9788 109.618 37.4389C108.501 37.7677 107.366 37.7617 106.222 37.5371C105.002 37.2971 104.073 36.6414 103.392 35.6275C103.015 35.0659 102.785 34.4434 102.647 33.7688C102.483 32.9689 102.474 32.1743 102.461 31.3651C102.449 30.6222 102.561 29.9177 102.78 29.2245C103.4 27.2596 104.965 26.0214 106.887 25.8513C107.859 25.7653 108.824 25.7766 109.772 26.0404C111.254 26.4532 112.141 27.4486 112.554 28.9025C112.601 29.0706 112.647 29.2394 112.687 29.4095C112.757 29.6992 112.683 29.8591 112.403 29.8624C111.88 29.868 111.355 29.8373 110.835 29.7803C110.704 29.7658 110.568 29.6119 110.474 29.4907C110.261 29.214 110.076 28.9163 109.874 28.6306C109.639 28.2982 109.323 28.0889 108.921 28.0021C108.375 27.8841 107.825 27.8627 107.275 27.9285C106.283 28.0469 105.653 28.6492 105.225 29.5044C104.822 30.3096 104.703 31.166 104.783 32.0563C104.832 32.6062 104.902 33.1487 105.066 33.6823C105.248 34.2734 105.618 34.7226 106.037 35.1455C106.12 35.2296 106.229 35.2974 106.338 35.3459C107.43 35.8311 108.496 35.8581 109.525 35.1686C109.841 34.9569 110.026 34.6495 110.191 34.3234C110.24 34.2277 110.272 34.1239 110.313 34.0245C110.514 33.5357 110.687 33.4395 111.213 33.4929C111.507 33.5224 111.803 33.5288 112.098 33.5401C112.256 33.5462 112.416 33.5409 112.66 33.5409Z" fill="white"/>
<path d="M128.565 28.1168C128.555 28.2739 128.54 28.4186 128.539 28.5636C128.538 29.748 128.535 30.9325 128.54 32.1169C128.547 33.7167 128.56 35.316 128.571 36.9157C128.573 37.3573 128.462 37.4587 128.028 37.4607C127.639 37.4623 127.25 37.4744 126.863 37.5043C126.338 37.5443 126.205 37.434 126.205 36.9121C126.21 34.6103 126.215 32.3088 126.219 30.007C126.22 29.1207 126.217 28.2347 126.214 27.3484C126.212 26.8572 126.76 26.1826 127.242 26.1014C127.401 26.0747 127.563 26.0638 127.724 26.065C128.976 26.0747 130.227 26.0888 131.479 26.103C132.223 26.1115 132.915 26.3264 133.548 26.7025C134.036 26.9925 134.359 27.4256 134.547 27.9746C134.989 29.2705 134.914 30.5503 134.436 31.8087C134.24 32.325 133.838 32.7168 133.346 32.9584C132.978 33.139 132.566 33.2913 132.163 33.3244C131.279 33.3975 130.388 33.3943 129.501 33.4064C129.12 33.4116 129.12 33.3244 129.12 32.9356C129.103 32.5623 129.12 32.1939 129.12 31.8506C129.12 31.6926 129.12 31.5347 129.12 31.3744C129.322 31.3664 129.439 31.3664 129.651 31.3744C129.999 31.3494 130.35 31.372 130.7 31.3664C130.901 31.3631 131.104 31.3575 131.302 31.3276C132.471 31.1494 132.787 30.1532 132.549 29.2459C132.38 28.6016 131.962 28.1604 131.277 28.1277C130.395 28.0849 129.509 28.1168 128.565 28.1168Z" fill="white"/>
<rect x="87.0304" y="27.0304" width="11.9393" height="4.93927" rx="1.54554" stroke="white" stroke-width="2.06073"/>
<rect x="92" y="38" width="9" height="2" rx="0.564246" transform="rotate(-90 92 38)" fill="white"/>
<path d="M120.234 28.1467C120.221 28.286 120.207 28.3648 120.207 28.444C120.215 30.6772 120.224 32.9107 120.233 35.1439C120.236 35.7628 120.244 36.3817 120.242 37.0006C120.241 37.3839 120.175 37.4445 119.791 37.4433C119.28 37.4417 118.769 37.4401 118.258 37.4304C117.932 37.4243 117.874 37.3605 117.874 37.0579C117.874 35.1342 117.872 33.2101 117.876 31.2863C117.878 30.4259 117.889 29.5654 117.896 28.7045C117.896 28.6912 117.897 28.6775 117.897 28.6642C117.902 27.9786 117.724 28.0647 117.268 28.0954C116.598 28.1402 115.925 28.1402 115.252 28.1358C114.64 28.1321 114.484 27.8239 114.558 27.2422C114.642 26.5809 115.177 26.0844 115.882 26.0852C116.823 26.0864 117.765 26.0698 118.706 26.0694C120.038 26.0686 121.37 26.0759 122.702 26.0799C122.837 26.0803 122.972 26.0779 123.106 26.0848C123.539 26.1066 123.612 26.1394 123.612 26.5983C123.612 26.8186 123.612 27.0114 123.612 27.2971C123.612 27.8191 123.529 27.9859 123.148 28.0392C122.763 28.0933 122.372 28.1164 121.983 28.1232C121.54 28.1309 121.096 28.101 120.652 28.097C120.522 28.0962 120.391 28.1269 120.234 28.1467Z" fill="white"/>
<path d="M41.6021 37.2861C41.5754 37.4763 41.47 37.5596 41.2672 37.5446C40.9998 37.5244 40.2251 37.5152 39.9593 37.5378C39.4523 37.581 39.36 37.0736 39.3277 36.5327C39.3164 36.3448 39.3043 36.1566 39.3039 35.9687C39.3011 33.17 39.2994 30.3716 39.3003 27.5729C39.3003 27.2235 39.3071 26.8732 39.3293 26.525C39.3495 26.2083 39.4122 26.1521 39.7228 26.1485C40.0319 26.1449 40.3413 26.1639 40.6507 26.1643C42.2788 26.1667 43.9068 26.1663 45.5352 26.1671L45.5374 26.1671C45.9536 26.1675 46.3693 26.1679 46.7855 26.1695C47.0877 26.1707 47.1317 26.2022 47.1414 26.5185C47.1535 26.9213 47.1866 27.3305 47.1313 27.726C47.0513 28.2968 46.9519 28.3356 46.4272 28.3405C44.9745 28.353 43.5218 28.353 42.0691 28.3607C41.9241 28.3615 41.7794 28.3792 41.6001 28.3918L41.6021 37.2861Z" fill="white"/>
<rect x="74.812" y="26.0855" width="2.53911" height="11.5671" rx="0.564246" fill="white"/>
<path d="M77.9153 30.8816C77.9153 30.57 78.1679 30.3174 78.4795 30.3174H79.8901C81.9157 30.3174 83.5577 31.9594 83.5577 33.985C83.5577 36.0105 81.9157 37.6526 79.8901 37.6526H78.4795H75.7994C75.4877 37.6526 75.2351 37.4 75.2351 37.0883V36.1009C75.2351 35.7893 75.4877 35.5367 75.7994 35.5367H78.4635C78.4742 35.5367 78.4833 35.5369 78.4939 35.5373C78.6961 35.5456 80.9576 35.6021 80.9576 33.985C80.9576 32.7571 79.3568 32.4199 78.4775 32.3273C78.1676 32.2947 77.9153 32.0396 77.9153 31.728V30.8816Z" fill="white"/>
<path fill-rule="evenodd" clip-rule="evenodd" d="M66.3482 26.1923L66.1874 26.1923C65.946 26.1923 65.7314 26.3458 65.6534 26.5742L62.0891 37.0127C61.9641 37.3788 62.2362 37.7593 62.623 37.7593L64.0814 37.7593C64.3367 37.7593 64.5602 37.5879 64.6264 37.3413L66.438 30.5891C66.5875 30.0317 67.3784 30.0317 67.5279 30.5891L69.3395 37.3413C69.4056 37.5879 69.6291 37.7593 69.8844 37.7593L71.3428 37.7593C71.7297 37.7593 72.0018 37.3788 71.8768 37.0127L68.3124 26.5742C68.2345 26.3458 68.0198 26.1923 67.7785 26.1923L67.6176 26.1923H66.3482Z" fill="white"/>
</svg>
